<svg class="svg-icon" style="width: 1em; height: 1em;vertical-align: middle;fill: currentColor;overflow: hidden;" viewBox="0 0 1024 1024" version="1.1" xmlns="http://www.w3.org/2000/svg"><path d="M626.1 197.48l33.14 99.4-181.18 181.18c-18.76 18.76-18.76 49.12 0 67.88 18.74 18.74 49.12 18.76 67.88 0l181.18-181.18 99.4 33.14c14.78 4.92 31.06 1.08 42.08-9.92l127.34-127.34c21.6-21.6 12.92-58.4-16.08-68.08l-111.32-37.1-37.1-111.3c-9.66-29-46.46-37.68-68.08-16.08L636.04 155.4a41.164 41.164 0 0 0-9.94 42.08z m-150.34 192.38l110.28-110.28-4.24-12.76c-22.34-6.34-45.44-10.82-69.8-10.82-141.38 0-256 114.62-256 256s114.62 256 256 256 256-114.62 256-256c0-24.36-4.48-47.46-10.84-69.78l-12.74-4.24-110.28 110.28C618.38 601.1 569.9 640 512 640c-70.58 0-128-57.42-128-128 0-57.9 38.9-106.38 91.76-122.14z m509.1-27.66l-71 71c-11 11-24.14 18.96-38.34 24.14 2.66 17.88 4.5 36.04 4.5 54.66 0 203.38-164.58 368-368 368-203.38 0-368-164.58-368-368 0-203.38 164.58-368 368-368 18.84 0 37.2 1.86 55.26 4.58 5.16-14.04 12.46-27.38 23.52-38.44l71-71A495.696 495.696 0 0 0 512 16C238.06 16 16 238.06 16 512s222.06 496 496 496 496-222.06 496-496c0-52.22-8.18-102.52-23.14-149.8z"  /></svg>