<?xml version="1.0" encoding="utf-8"?>
<svg version="1.1" id="Layer_1" xmlns="http://www.w3.org/2000/svg" x="0" y="0" viewBox="0 0 299 88" xml:space="preserve">
  <style>
    .st0{fill:none}.st1{fill-rule:evenodd;clip-rule:evenodd;fill:#94192c}.st2{fill:#293e5c}.st3{fill:#fff}.st4{fill:#fcb813}.st5{fill:#2a3e5f}
  </style>
  <path class="st2" d="M14.2 66.4v3.2h7.6v5h-7.6v3.7h8.9v5.2H8.4V61.2h14.7v5.2h-8.9zM35.2 61.2c1.7 0 3.2.2 4.6.7 1.4.5 2.6 1.2 3.5 2.2 1 1 1.7 2.1 2.3 3.5.5 1.4.8 3 .8 4.8s-.3 3.4-.8 4.7c-.5 1.4-1.3 2.5-2.3 3.5-1 .9-2.1 1.7-3.5 2.1-1.4.5-2.9.7-4.6.7h-8.6V61.2h8.6zm-2.8 17.1h2.8c1.7 0 3-.5 3.9-1.5s1.3-2.5 1.3-4.4c0-2-.4-3.5-1.3-4.5s-2.2-1.5-3.9-1.5h-2.8v11.9zM58.6 61.2c1 0 2 .1 2.8.4.9.3 1.6.7 2.3 1.2.6.6 1.2 1.2 1.5 2.1.4.8.6 1.8.6 2.8s-.2 1.8-.5 2.4-.7 1.1-1.2 1.6c.8.4 1.4.9 1.8 1.7.5.8.7 1.8.7 3.2 0 1.2-.2 2.3-.6 3.1-.4.9-.9 1.6-1.6 2.1-.7.6-1.5 1-2.4 1.2-.9.3-2 .4-3.1.4h-9.6V61.2h9.3zm-3.4 8.4H58c.6 0 1-.1 1.4-.3.4-.2.5-.6.5-1.2s-.2-1.1-.5-1.3-.8-.4-1.4-.4h-2.7l-.1 3.2zm0 8.7h3.1c.8 0 1.3-.1 1.8-.4.4-.3.7-.8.7-1.4 0-.7-.2-1.2-.7-1.5-.4-.3-1-.4-1.6-.4h-3.2l-.1 3.7z"/>
  <circle class="st2" cx="37.3" cy="31" r="26.5"/>
  <path class="st3" d="M35.3 8.8c-1.5 1.4-2.8 2.9-4.1 4.5-1.3 1.6-2.5 3.2-3.7 4.9s-2.2 3.4-3.3 5.2c-1 1.8-2 3.6-2.8 5.4.9-1.8 1.9-3.6 2.9-5.4 1-1.7 2.1-3.4 3.3-5.1 1.2-1.7 2.4-3.3 3.7-4.8 1.3-1.5 2.7-3 4.2-4.4s3-2.7 4.6-3.9c.2-.1.4-.3.5-.4-.2 0-.4-.1-.6-.1-.1 0-.1.1-.2.1-1.6 1.2-3.1 2.6-4.5 4z"/>
  <path class="st3" d="M44.6 13.8c-1.7.7-3.4 1.4-5.1 2.3-3.3 1.7-6.5 3.6-9.5 5.7s-5.9 4.4-8.6 6.9c2.7-2.5 5.7-4.7 8.7-6.8s6.2-3.9 9.5-5.6c1.7-.8 3.3-1.5 5.1-2.2 1.7-.6 3.5-1.2 5.3-1.6 1.8-.4 3.6-.8 5.4-1-.2-.2-.4-.3-.6-.5-1.7.2-3.3.6-4.9 1-1.8.6-3.6 1.2-5.3 1.8zM53.9 22.7c-1.8.1-3.7.2-5.5.4-1.8.2-3.7.4-5.5.7-3.6.5-7.3 1.3-10.9 2.1-3.6.8-7.2 1.8-10.7 2.9 3.5-1 7.1-1.9 10.7-2.7 3.6-.8 7.2-1.4 10.9-1.9 1.8-.2 3.7-.5 5.5-.6 1.8-.2 3.7-.3 5.5-.3 3-.1 5.9.1 8.8.5-.1-.2-.1-.4-.2-.7-2.8-.4-5.7-.5-8.6-.4z"/>
  <path class="st3" d="M60.3 33.6l-3-.6c-2-.4-4-.7-6-1.1l-6-.9c-4-.5-8-1-12-1.4s-8-.7-12-1c4 .3 8 .7 12 1.1s8 .9 12 1.5l6 .9c2 .4 4 .7 5.9 1.1 1 .2 2 .4 2.9.6 1 .2 2 .4 2.9.7l.4.1c0-.2.1-.4.1-.6l-.3-.1c-.9.1-1.9-.1-2.9-.3zM59.4 42.4c-2-1-4.1-1.8-6.2-2.7-2.1-.9-4.2-1.7-6.3-2.5-4.2-1.6-8.4-3.1-12.7-4.5-4.3-1.4-8.6-2.8-12.9-4 4.3 1.3 8.6 2.7 12.8 4.2 4.2 1.5 8.5 3 12.6 4.6 2.1.8 4.2 1.7 6.2 2.6 2.1.9 4.1 1.8 6.1 2.8.5.2 1 .5 1.4.7.1-.2.2-.3.2-.5-.2-.2-.7-.5-1.2-.7zM41.8 40.4c-3.4-2-6.8-4-10.2-5.9s-6.8-3.8-10.3-5.7c3.4 1.9 6.8 3.9 10.2 5.9s6.7 4 10.1 6c3.3 2 6.6 4.1 9.9 6.3 1.5 1 2.9 1.9 4.4 2.9l.4-.4-4.5-3c-3.3-2.1-6.6-4.2-10-6.1z"/>
  <path class="st3" d="M36.2 43.4c-2.5-2.4-5-4.8-7.5-7.3-2.5-2.4-4.9-4.9-7.4-7.4l7.2 7.5c2.4 2.5 4.9 4.9 7.4 7.4 2.5 2.4 5 4.8 7.6 7.2 1.6 1.4 3.2 2.9 4.8 4.3l.6-.3c-1.7-1.4-3.4-2.9-5.1-4.4-2.5-2.3-5.1-4.6-7.6-7z"/>
  <path class="st3" d="M30.3 46c-1.7-2.8-3.2-5.6-4.7-8.5s-2.9-5.8-4.2-8.8c1.3 3 2.6 5.9 4.1 8.8 1.4 2.9 2.9 5.8 4.5 8.6s3.3 5.6 5.2 8.2c.8 1 1.6 2.1 2.4 3.1h.7c-1-1.1-1.9-2.2-2.8-3.3-1.8-2.6-3.6-5.3-5.2-8.1z"/>
  <path class="st3" d="M27.6 53.4l-.4-1-.4-1-.8-2c-.5-1.3-1-2.7-1.4-4-.8-2.7-1.6-5.5-2.1-8.3s-.9-5.6-1.1-8.5c.1 2.8.5 5.7.9 8.5.5 2.8 1.1 5.6 1.9 8.3.4 1.4.9 2.7 1.3 4.1l.8 2 .4 1 .4 1c.3.7.6 1.3.9 2l.1.3c.3.1.5.2.8.3l-.4-.8c-.3-.6-.6-1.2-.9-1.9zM20.2 41.6c-.1-2.2 0-4.3.2-6.5s.5-4.3 1-6.4c-.6 2.1-.9 4.2-1.2 6.4-.2 2.2-.4 4.3-.4 6.5s.1 4.3.4 6.5c.1 1.2.3 2.3.5 3.5.2.2.5.4.7.6-.3-1.4-.6-2.8-.8-4.2-.2-2.1-.4-4.2-.4-6.4z"/>
  <path class="st3" d="M14.4 40.2l.2-.6.3-.6.5-1.2C16.1 36 17 34.5 18 33s2.1-2.9 3.4-4.2c-1.3 1.2-2.5 2.6-3.5 4.1-1 1.5-2 3.1-2.8 4.7l-.6 1.2-.3.6-.2.6c-.2.4-.3.8-.5 1.3l-.3.7c.1.2.2.4.3.7l.4-1.2c.2-.5.3-.9.5-1.3zM21.4 28.8c-2 .2-3.9.7-5.7 1.4-1.7.6-3.3 1.5-4.8 2.4v.4c1.5-1 3.1-1.9 4.8-2.6 1.8-.8 3.7-1.4 5.7-1.6zM16.4 27.4c1.6.6 3.3 1.1 5 1.3-1.7-.3-3.4-.8-4.9-1.5-1.6-.7-3.1-1.5-4.5-2.5-.1-.1-.2-.1-.3-.2 0 .1-.1.2-.1.4.1 0 .1.1.2.1 1.4 1 3 1.8 4.6 2.4z"/>
  <path class="st3" d="M18.2 25.3c.9 1.3 2 2.5 3.1 3.5-1.1-1.1-2.1-2.3-3-3.6-.9-1.3-1.6-2.7-2.1-4.1-.5-1.5-.9-3-1-4.5v-.1c-.1.2-.3.4-.4.7.2 1.4.6 2.8 1.1 4 .6 1.4 1.4 2.8 2.3 4.1zM20.8 14.2c-.3 1-.5 1.9-.6 2.9-.3 2-.3 4-.1 5.9.2 2 .6 3.9 1.3 5.8-.6-1.9-1-3.8-1.1-5.8s-.1-3.9.3-5.9c.2-1 .4-1.9.7-2.8.3-.9.7-1.8 1.1-2.7.7-1.4 1.6-2.8 2.7-4-.5.3-.9.5-1.4.8-.7.9-1.2 1.9-1.7 3-.6.9-.9 1.8-1.2 2.8z"/>
  <path class="st3" d="M26.5 9.4c-.7 1.1-1.4 2.3-2 3.5-1.2 2.5-2 5.1-2.5 7.7-.3 1.3-.4 2.7-.6 4-.1 1.3-.1 2.7-.1 4.1-.1-1.3 0-2.7.1-4s.3-2.7.6-4c.6-2.6 1.5-5.2 2.7-7.6.6-1.2 1.3-2.3 2.1-3.5.8-1.1 1.6-2.1 2.5-3.1.4-.4.8-.8 1.2-1.1-.4.1-.7.2-1.1.3l-.5.5c-.8 1-1.6 2.1-2.4 3.2z"/>
  <g>
    <path class="st4" d="M47 37.4c.2.1.2.3.1.4-.1.2-.2.3-.3.4-.3.3-.7.6-.7 1.1 0 .2 0 .4.1.6 0 .1.1.2.2.3l.1.1c-.3.3-.5.5-.5.7v.3h-.1c-.1 0-.3 0-.4-.1l-.6-.3c-.1.2-.3.3-.5.3s-.4-.1-.6-.3c-.1.1-.1.2-.2.2-.2.1-.4.1-.6.1-.3 0-.4-.2-.6-.4l-.3.3c-.1.1-.4.2-.5 0s-.1-.4.1-.5c.1-.2.3-.3.5-.4.3-.2.7-.2 1-.3.3 0 .6 0 .9-.3.3-.3.2-.7.2-1.1-.1-.4-.1-.8-.3-1.2-.3-.8-.9-1.4-1.3-2.1-.2-.3-.4-.7-.5-1.1 0-.2-.1-.4-.1-.5v-.4h.3c.4 0 .7.1 1.1.3l.9.6c.5.4 1 1 1.6 1.4.2.1.3.2.5.3l-.4.4c-.1.3-.2.6-.1.8 0 .2.2.4.4.4s.4-.1.6 0zM25.1 31.2h.1l-.1.1v.1c0-.1-.1-.2-.2-.2h-.1H25.1zM25 31.7c0 .1.2.1.3.1-.1.1-.2.2-.2.3 0-.1-.1-.2-.1-.2s-.1-.1-.2-.1c.1 0 .1-.1.2-.1zM25.1 32.5s.1 0 0 0c0 .1-.1.2-.1.2 0-.1-.1-.1-.2-.2 0 0-.1 0-.1-.1.1 0 .3 0 .3-.1 0 .1.1.1.1.2z"/>
    <path class="st4" d="M25.7 32c.1 0 .1.1.1.2 0 .2-.2.3-.3.4-.1.1-.2.3-.4.3-.1-.1-.1-.2 0-.3 0 0 .1-.1.1-.2.1 0 .1 0 .1-.1.2 0 .3-.1.4-.3z"/>
    <path class="st4" d="M25.8 31.6c0 .1 0 .2-.1.3-.1.2-.2.3-.3.4l-.1.1c-.1 0-.1-.2 0-.2 0 0 .2-.3.2-.4h.1l.3-.3c-.2 0-.1 0-.1.1zM25.7 30.9v.1c0 .1-.1.2-.1.2-.1.1-.1.3-.3.4-.1.1-.3.2-.3 0 0-.1.1-.2.1-.2s0-.1.1-.1l.1-.1c.2-.2.3-.2.4-.3zM25.7 30.4v.2c-.1.2-.2.3-.3.4-.1.1-.1.2-.2.2 0 0-.1 0-.1-.1.1 0 .1-.1.1-.2v-.1l.3-.3c0-.1.1-.1.2-.1z"/>
    <path class="st4" d="M26.3 35s0 .1 0 0c-.1.1-.2-.2-.2-.2 0-.1-.1-.2-.1-.4V34c0-.1.1-.2.1-.4.1-.2.1-.5-.2-.6-.1 0-.2 0-.3-.1 0 0-.1 0-.1-.1l.1-.1c.1-.2.3-.4.3-.6 0-.1-.1-.2-.2-.2.1-.1.1-.2.1-.3 0-.1 0-.1-.1-.2h-.1v-.1c0-.1.1-.2.1-.3 0-.1 0-.1-.1-.1 0-.1.1-.1.1-.2s.1-.2 0-.3c-.1-.1-.3 0-.4 0l-.3.3c-.1-.2-.4-.3-.6-.4 0 0-.1 0-.3-.1.5 0 .9-.1 1.4-.2 0 0 .1 0 .1-.1l.2.2.4.4.9.9c.1.1.7.7 1 .9.2.9.8 1.7 1.4 2.3.2.2.4.3.6.5l-.3.3c-.2.1-.3.3-.5.4-.3.2-.7.3-1.1.2-.3-.1-.6-.4-.9-.7-.2-.2-.3-.5-.6-.6-.1-.1-.3 0-.4 0 .1.1 0 .2 0 .3z"/>
    <path class="st4" d="M23.5 36.9s-.2-.1-.3-.1c-.1 0-.2-.1-.3-.1-.2-.1-.4-.3-.3-.5 0-.2.1-.4.3-.4.1 0 .2 0 .3.1l.1.1v.1l.2-.2c.1-.1.1-.3.1-.4 0-.2 0-.5-.1-.7 0-.1-.1-.1-.1-.2l-.1-.1s.1 0 .1-.1l.3-.3.1-.3h-.3c-.1 0-.3 0-.4-.1-.2-.1-.3-.3-.2-.5.1-.1.2-.1.3-.1h.2c.1 0 .1.1.2.1.2 0 .2-.3.1-.4.1 0 .2.1.2.1.1 0 .2.1.3.1.2 0 .6.1.7-.2 0 0 0 .1.1.1v.3c.2 0 .4-.1.6 0 .1.1.2.2.2.3 0 .2-.2.3-.4.3h-.3s-.2-.1-.2 0c0 0 .1.3.1.4l.3.3c-.1.1-.2.2-.2.3-.1.1-.1.3-.2.4 0 .2 0 .4.1.6 0 .1.1.2.2.2l.2.1.1-.1.1-.1c.1-.1.2-.1.3 0 .2.1.3.2.2.4 0 .2-.2.4-.4.5l-.5.2.2.2c.1 0 .1.1.2.1 0 0 .3.1.4.2-.1 0-.1.1-.2.1h-.7v.3c0 .1 0 .2-.1.2-.1.2-.2.4-.4.4s-.4-.1-.5-.3c-.1-.1-.1-.2-.2-.3 0 0 0-.3-.1-.3l-.5.1h-.2c-.1 0-.1 0-.2-.1h-.1c.1 0 .4-.2.4-.2.1 0 .1-.1.2-.2l.1-.1c-.1-.1 0-.1 0-.2z"/>
    <path class="st4" d="M24.7 32.5c.1.1.3.2.2.3 0 .2-.5.1-.6.1-.2 0-.5-.1-.7-.2-.1-.1-.2-.1-.2-.3v-.2l.1-.1c.1 0 .2.1.3.1.1 0 .2.1.4.1h.4l.1.2z"/>
    <path class="st4" d="M24.9 31.9c.1.1.1.2.1.3-.1.1-.3.1-.4.1h-.3c-.1 0-.2 0-.4-.1-.1 0-.3-.1-.4-.1-.1-.1-.2-.2-.2-.3 0-.1 0-.1.1-.2l.1-.1c.1 0 .2.1.3.1.2 0 .4.1.5.1h.3c.1.1.3.2.3.2zM24.9 31.3c.1.1.1.3-.1.3-.1 0-.3 0-.5-.1-.1 0-.2-.1-.3-.1-.3-.1-.6-.1-.8-.2-.1-.1-.2-.3-.1-.4 0-.1.1-.1.1-.2l.1-.1c.1.1.2.1.3.2l.9.3h.2c.1.2.2.2.2.3z"/>
    <path class="st4" d="M25 30.8c0 .1 0 .1-.1.2-.2.1-.4 0-.6-.1-.1 0-.3-.1-.4-.1s-.3-.1-.4-.1c-.1-.1-.2-.1-.2-.3 0-.1 0-.1.1-.2H24c.2.1.5.2.6.2.1.1.3.1.3.2.1.1.1.1.1.2zM25.4 28.9c0 .1-.1.1-.1.2-.1 0-.2 0-.2-.1-.1-.1-.1-.4.1-.5.3-.3.8-.3 1 0 .3.3.3.7 0 1-.1.2-.3.3-.5.4-.1.1-.3.1-.4.1-.4.1-.9.1-1.3.1-.2 0-.3 0-.5-.1-.4-.1-.8-.2-1-.5s-.2-.7 0-1c.2-.2.7-.3 1 0 .1.1.2.3.1.4 0 .1-.1.1-.2.1h-.1v-.1.1c0 .1 0 .1.1.2s.2.2.3.2c.2.1.5.1.7.1s.5-.1.7-.2c.1-.1.3-.1.3-.2 0 0 .1-.1.1-.2-.1.1-.1 0-.1 0zm0 0z"/>
    <path class="st4" d="M26.3 16.2c-.1.1-.4 2.4-.5 2.6-.2 1.5-.4 3-.5 4.5-.1.9-.1 1.7-.1 2.6v2.3l-.3.3c-.1.2-.1.4.1.5.1 0 .2.1.2 0l.1-.1c0 .1-.1.1-.1.1-.1.1-.2.1-.3.2-.2.1-.4.1-.6.1s-.4 0-.6-.1c-.1 0-.2-.1-.3-.2l-.1-.1v-.1.1h.1c.1 0 .2-.1.2-.2.1-.2 0-.4-.2-.5 0-.2-.1-1.2-.1-1.3v-1.6c0-1.7.2-3.3.5-5 .2-.9.4-1.8.8-2.6.2-.4.5-.8.8-1.1.2-.2.3-.3.5-.4 0 .3.4 0 .4 0zM31.8 24.2c.1.1.1.3.1.5-.1.2-.4.3-.6.2-.1 0-.3-.1-.4-.1s-.2-.1-.3 0c0-.1.1-.1.1-.2l.3-.3c-.5-.1-.9-.1-1.4-.2-.4 0-.9-.1-1.3-.3-.2-.1-.5-.3-.5-.6 0-.1 0-.3.2-.3.1 0 .3.1.4.1.2.1 2.9.8 3.3.9 0 .1.1.2.1.3z"/>
    <path class="st4" d="M38.9 22.2s-.2-.1-.2-.2c-.1 0-.1-.1-.2-.2s-.1-.2-.2-.2c0 0 0-.1-.1-.1 0 .1 0 .2.1.3 0 .1.1.1.1.2l.2.2s.3.1.3 0zM36.7 21s-.2-.1-.2-.2c-.1 0-.1-.1-.2-.2l-.2-.2s0-.1-.1-.1c.1 0 .3.1.3.1h.4c.2 0 .5 0 .7-.1l.6-.3.3-.3.2-.2-.2.2c-.1.1-.2.2-.3.2l-.6.3c-.2.1-.4.1-.6.1h-.7c0 .1 0 .2.1.3 0 .1.1.1.1.2.1.1.1.1.2.1-.1.1.2.2.2.1zm-1.8.3l-.2-.2c0-.1-.1-.1-.1-.2s-.1-.1-.1-.2l.1.1c.1.1.2.1.3.2.2.1.4.1.6.2h.6s.5 0 .5-.1H36c-.2 0-.4 0-.6-.1-.2 0-.4-.1-.6-.1-.1 0-.2-.1-.3-.1l-.1-.1s0-.1 0 0c-.1 0 0 .2 0 .3 0 .1 0 .1.1.2 0 .1.1.1.2.2 0-.1.2-.1.2-.1zm-.4 4.2v-.1c0-.1 0-.2.1-.3 0-.1.1-.1.1-.2l.2-.1c0-.1-.2 0-.2 0-.1 0-.1.1-.2.2s-.1.2 0 .5c-.2-.2-.4-.5-.4-.5-.1-.1-.3-.2-.4-.3l-.2-.1.2.2c.1.1.2.2.4.3-.1 0 .4.4.4.4zm.4-4.1c0-.1-1-.4-1-.4-.2-.1-.4-.1-.6-.2-.2-.1-.4-.1-.6-.1-.3 0-.6.1-.7.4-.1.4.3.7.7.5.2-.1.3-.3.2-.5 0-.1-.1-.1-.2-.2h-.2s.1.1.2.1c.1.1.1.1.1.2 0 .2-.1.3-.3.3-.3.1-.6-.4-.3-.6.2-.2.5-.2.8-.1.4.1.8.2 1.1.3.1.1.8.3.8.3zm-.7 4.6l-.3.1c-.1 0-.2.1-.3.2s-.1.2-.2.3v.1-.1c0-.1 0-.2-.1-.3 0-.1-.1-.2-.2-.3 0 0-.2-.2-.3-.2 0 0-.2.1-.2.2s-.1.1-.1.2V26.5v-.1l-.2-.2c-.1-.1-.1-.1-.2-.1L32 26c0-.1-.1-.1-.1-.2-.2-.1-.5-.1-.7.1-.1.1-.1.2-.1.3v.3H31c-.1 0-.1 0-.2-.1l-.2-.2c-.1-.1-.1-.2-.2-.4l-.1-.2s-.1.1-.1.2-.1.1-.2.2c0 0-.1 0-.2.1s-.2.2-.4.3c0 0-.1 0-.1.1l.1-.1c.1-.1.2-.1.2-.2.1-.1.1-.2.1-.3 0 0 0-.3-.1-.3l-.4.1c-.2 0-.3.1-.5.1-.1 0-.3.1-.4.1.1 0 .1-.1.2-.1.1-.1.2-.2.2-.3l.1-.3H28.1c-.1 0-.3 0-.4.1 0 0-.2.1-.3.2 0-.1-.1-.2-.1-.2V25c0-.2 0-.3.1-.5 0-.1.1-.3.2-.4l.2-.2.1-.1.1.1c.4.3 1 .3 1.5.4.4 0 .8.1 1.2.1-.2.2-.4.4-.5.6.1 0 .3-.1.4-.1.2 0 .4.1.6.1.3.1.7 0 .8-.3.1-.3-.2-.7-.4-.9-.2-.3-.5-.5-.7-.8-.1-.1-.1-.3-.2-.5v-.3l-.2.1c-.1.1-.1.2-.1.3v.3l.1.2c-.1 0-.3-.1-.3-.1-.1-.1-.2-.1-.2-.2-.1-.1-.2-.2-.2-.3 0-.1 0-.1-.1-.2l-.1.2v.2c0 .1 0 .2.1.2 0 0 .1.1.1.2-.1-.1-.4-.2-.4-.2-.3-.1-.5-.3-.8-.5-.4-.3-.8-.8-1-1.3-.2-.4-.2-.9-.2-1.3.1-.5.5-.9 1-.8.2 0 .5.2.5.4.1.1.1.3 0 .4 0 0-.1.2-.1.3 0 0 .7-.1.8-.1.5-.1 1-.2 1.6-.3.3-.1.6-.2.8-.5.1-.1.1-.3 0-.4 0-.1-.1-.1-.1-.2h-.1c.1 0 .2-.1.2-.1.1 0 .2 0 .4-.1h.7c.2 0 .5.1.7.2.1 0 .2.1.3.2l.2.2c.2-.1.3-.4.2-.6 0-.1-.1-.2-.2-.3 0 0-.1 0-.1-.1h.5c.2 0 .4.1.6.2.2.1.4.2.5.3.1.1.2.2.3.2 0 0 .1.2.2.2l.2-.2c.1-.1.1-.2.1-.4 0-.1-.1-.2-.1-.3 0 0-.1-.2-.2-.2h.3c.2 0 .3.1.4.2.2.1.4.4.6.6.2.1.4.2.6.2.3 0 .6 0 .8-.2l.3-.3s0-.1.1-.2v.2c0 .1 0 .3-.1.4-.1.3-.2.5-.4.7s-.3.4-.5.6l-.1.1-.1.1.1.1c.3.2.5.6.5 1 .1.5 0 1-.1 1.5v.7s.1.4.2.5c-.1 0-.3-.1-.3-.1l-.3-.3c-.2-.2-.2-.5-.3-.8s-.1-.6-.3-.8l-.3-.3s-.4-.2-.4-.1.1.1.1.2c.1.2.1.4 0 .6 0 .1-.1.3-.1.4 0 0 0 .1-.1.2v-.2c0-.1-.1-.3-.2-.4-.1-.1-.2-.2-.3-.2s-.1-.1-.2-.1c0 0-.1-.1-.2-.1V22.3c0 .1.1.2.1.4 0 .1.1.2 0 .3v.2l-.1.1c0-.1-.1-.3-.1-.3-.1-.1-.1-.2-.2-.3l-.3-.3c-.1 0-.2-.2-.3-.2 0 .1.1.2.1.2.1.1.1.3.1.4v.3c0 .1 0 .1-.1.2 0 0 0 .1-.1.1v-.3c0-.1 0-.2-.1-.3-.1-.1-.2-.2-.3-.2 0 0-.3-.1-.3 0v.8s-.2-.1-.3-.1-.1-.1-.2-.2l-.2-.2-.1-.1v.2c0 .1 0 .1-.1.2 0 .1 0 .1-.1.2 0 0-.1.1-.1.2 0 0-.3-.1-.3-.2-.1-.1-.2-.1-.2-.2-.1-.1-.1-.2-.2-.3 0 0 0-.3-.1-.4-.1 0 0 .4 0 .4 0 .1.1.2.1.3.1.1.2.2.3.2l.4.1.2-.1c.1-.1.1-.1.1-.2V23v-.1l.1.1c0 .1.1.1.2.2s.2.1.3.1h.3c.1 0 .1-.4.1-.5v-.2s-.1-.1-.1-.2c.1 0 .2.1.2.1.1 0 .1.1.2.2 0 .1.1.2.1.3l.1.3.2-.2c.1-.1.1-.2.1-.3 0-.1 0-.2-.1-.3 0-.1-.1-.1-.1-.2l-.1-.1.1.1.3.3c.1.1.2.2.2.3 0 .1.1.1.1.2 0 0 0 .2.1.2l.2-.2c.1-.1.1-.3 0-.4 0-.1-.1-.2-.1-.3 0-.1-.1-.1-.1-.2v-.1l.2.2c.1.1.2.1.3.2s.2.2.2.3l.1.3.2-.3c.1-.1.1-.3.2-.4 0-.2 0-.4-.1-.6 0-.1-.1-.1-.1-.1s0-.1-.1-.1c.1 0 .3.1.3.1l.3.3c.2.2.2.5.3.8s.1.5.3.8v.5c0 .2.1.4.2.5.1.2.3.3.5.4 0 0 .2.1.4.1h-.2c-.1 0-.3 0-.4-.1-.2-.1-.4-.1-.7-.3-.2-.1-.4-.3-.5-.4s-.2-.2-.2-.3l-.1-.3c0-.1-.3 0-.3 0-.1 0-.2.1-.2.2-.1.1 0 .4.1.5-.1 0-.2-.1-.2-.1-.1-.1-.2-.1-.3-.2s-.2-.2-.2-.3l-.1-.2v-.1c-.1 0-.1.5-.1.6v.3s-.1.2-.1.3c0-.1-.1-.3-.1-.3 0-.1-.1-.2-.2-.3-.1-.1-.2-.2-.3-.2h-.2-.2l.3.1c.1.1.2.1.3.2 0 .1.4.6.4.6l.2-.2v-.3-.3.1c0 .1.1.2.2.3.1.1.2.2.3.2 0 0 .3.1.4.1l-.1-.1c-.1-.1-.1-.2 0-.3 0-.1.1-.1.1-.2 0 0 .1-.1.2-.1h.1v.3c0 .1.1.3.2.4.1.2.3.4.6.5.1 0 .2.1.3.1 0 .1 0 .4.1.4 0 .1.1.3.2.4.1.1.3.2.4.3 0 0 .2 0 .3.1H38.5c-.3 0-.5 0-.8-.1-.2-.1-.5-.2-.6-.4-.1-.1-.2-.2-.2-.3l-.2-.3-.2.2c0 .1-.1.2-.1.3v.3-.1l-.3-.3c-.2-.2-.4-.3-.5-.5v-.2h-.2c-.1 0-.1.1-.2.1 0 .1-.1.1-.1.2v-.1c0-.1-.1-.2-.1-.3l-.2-.2c-.1 0-.2-.2-.3-.1v.1l.1.1c.1.1.1.2.2.2.1.1.1.1.1.2l.1.3v-.1c0-.1.1-.2.1-.2l.1-.1.1-.1c0 .1 0 .3.1.3.1.1.1.2.2.3v1.1c0-.1-.1-.2-.1-.2l-.3-.3c-.1-.1-.2-.2-.4-.2 0 0-.4-.2-.4-.1-.1 0-.1.4-.1.5V26.8c0-.1 0-.2-.1-.2 0-.1-.1-.2-.2-.3-.1-.1-.2-.2-.3-.2.8 0 .5-.2.5-.1z"/>
    <path class="st4" d="M33.3 27.5v.2c0 .1 0 .2-.1.3-.1.1-.2.3-.2.4-.1.1-.2.3-.3.4 0 0-.1.3-.2.4v-.1-.2c0-.1.1-.2.1-.3 0-.1.1-.3.1-.4V28l-.1-.1-.1-.1h-.2c-.1 0-.2.1-.3.1-.1 0-.2.1-.3.2-.1 0-.1.1-.2.1.1-.1.2-.3.3-.3.1-.1.2-.3.2-.4.1-.2.1-.3.1-.5 0 0 0-.4-.1-.5l.1-.1c.1-.1.1-.2.1-.3l.2.2c.1 0 .1.1.2.1l.1.1.1.1v-.1c0-.1.1-.2.1-.3 0-.1 0-.1.1-.2l.1-.2.2.2c0 .1.1.2.1.3 0 .1.1.2.1.3 0 0 0 .3.1.3l.1-.2c.1-.1.1-.2.2-.3l.2-.2s.2-.1.2-.2c0 0 .2.2.3.2l.2.2c.1.1.1.2.2.3l.1.3s.1-.1.1-.2.1-.2.1-.3v-.2-.3l.3.2c.1.1.2.1.3.2l.3.3.2.3c.1 0 .1-.6.1-.7s0-.2-.1-.4c0 0 0-.1-.1-.1 0 0 .1 0 .1.1l.3.3s.1.1.1.2v-.1-.3-.2l.1-.2c0 .1.1.3.1.3.1.1.1.3.2.4.2.2.4.3.6.4.3.1.5.1.8.1h.1c.1.1.3.3.3.4l.4.4c.2.1.3.2.5.2 0 0 .4.1.5.1-.1 0-.2.1-.2.1-.1.1-.3.1-.4.1h-.7c-.3 0-.5-.1-.8-.3 0 0-.4-.2-.4-.3l.1.4c0 .2.1.3.1.5s.1.3.1.5c0 0 0 .3.1.4l-.2-.1c-.1 0-.2-.1-.3-.1-.1-.1-.3-.2-.4-.3-.1-.1-.2-.3-.4-.4l-.3-.4-.4.3c-.1.1-.2.3-.3.4s-.2.3-.2.5V29v-.7c0-.2-.1-.5-.2-.7-.1-.1-.1-.2-.2-.3l-.2-.2-.1.4c0 .2-.1.3-.1.5 0 .1-.1.3-.1.4 0 0-.1.3-.2.4v-.2c0-.1 0-.3-.1-.4 0-.1-.1-.2-.2-.3 0 0-.2-.3-.3-.2 0 0-.1.3-.1.4s-.1.2-.2.4c-.1.1-.1.3-.2.4 0 0-.1.1-.1.2v-.2c0-.1 0-.3-.1-.4 0-.1-.1-.2-.2-.3.3-.5.2-.6.1-.7z"/>
    <path class="st4" d="M33.7 28.8l.3-.2c.1-.1.2-.2.3-.4.1-.1.1-.3.1-.4 0 0 .1-.3.1-.4 0 .1.1.2.2.2.1.1.1.2.1.3 0 .1.1.2.1.4l.1.3.3-.4c.1-.1.1-.3.2-.4 0-.1.1-.7.1-.9 0 .1.1.2.1.2.1.1.1.2.2.3.1.2.1.4.2.7 0 .2.1.5.1.7v.7c.1-.1.2-.4.2-.4.1-.2.2-.3.3-.4s.2-.3.3-.4c0 0 .3-.3.3-.4 0 .1.2.4.2.5.1.2.2.3.3.4s.3.3.5.3c.1.1.2.1.3.1h.2c.1 0 0-.8 0-.9s-.2-.6-.2-.8c.1.1.3.3.4.3.2.2.5.3.8.3.2.1.5 0 .7 0 .1 0 .3-.1.4-.2l.2-.2-.5-.2c-.2-.1-.3-.2-.4-.3-.2-.1-.3-.2-.5-.3l-.3-.3h.4c1.5.2 3 .3 4.6.2 1.6 0 3.3 0 4.8-.5.6-.2 1.2-.5 1.4-1.2s-.3-1.4-1-1.6c-.8-.3-1.6 0-2.4.2-1.2.3-2 .3-2.9.3-.8 0-1.5-.2-2.3-.4-.3-.1-.7-.3-1.1-.1-.2.1-.3.2-.4.3 0 .1-.1.2 0 .2v.1c-.1-.1-.3-.3-.4-.3-.1-.1-.2-.3-.3-.5v-.6c0-.1.1-.2.1-.3l.1-.2-.2-.2c-.1-.1-.2-.2-.2-.3l-.3-.9c-.1-.6.1-1.3.5-1.8.7-.9 1.8-1.3 2.9-1.3.9 0 1.7.2 2.6.4 1.1.3 2.2.7 3 1.5.4.4.8.8 1.3 1.1.2.2.4.3.7.4.1 0 .6.3.6.2v-.1-.2c0-.2.1-.3.2-.4.2-.2.5-.3.8-.2.2.1.4.3.5.6.1.3 0 .5-.2.8-.3.4-.8.6-1.3.5-.3 0-.5-.1-.8-.3-.2-.2-.5-.4-.7-.6-.1-.1-1.3-.9-1.3-.9-.1.2 0 .6.2.8l.3.3s.1 0 .1.1c-.2-.1-.4-.1-.4-.1l-.6-.3c-.2-.1-.4-.2-.5-.4-.1-.1-.2-.2-.2-.3 0 0-.1-.1-.1-.2v.2c0 .1 0 .2-.1.2-.1.2-.2.3-.3.4-.2.2-.4.3-.7.3h-.2c.1-.1.3-.6.3-.6.1-.3.1-.5 0-.8s-.2-.5-.4-.7c-.1-.1-.2-.1-.4-.2 0 0-.3-.1-.3 0l.2.3c.1.1.1.3.1.5 0 .3-.1.5-.2.8-.2.2-.4.4-.7.6-.1.1-.3.1-.4.1h-.3c.1 0 .2-.2.2-.2.1-.1.1-.3.1-.5 0-.3 0-.6-.1-.9s-.3-.6-.5-.7c-.1-.1-.3-.1-.4-.2h-.3l-.1.4c0 .2-.1.4-.2.6 0 .1-.1.2-.2.2s-.1-.1-.1-.2c0-.2-.2-.3-.3-.4-.3-.1-.6 0-.8.2-.3.3-.4.6-.4 1 0 .2.1.3.2.5l.2.2s.1.1.1 0v-.1s0-.1.1-.1c.1-.1.2-.1.2-.2.2-.1.4-.1.5-.1.2 0 .4 0 .6.1.1 0 .2.1.3.1 0 0 .1.1.2.1h-.2c-.1 0-.2.1-.3.1-.2.1-.3.3-.4.4-.1.2-.1.4 0 .6 0 .1.1.2.2.3 0 0 .2.2.2.1l.1-.3c0-.1.1-.2.1-.3.2-.2.5-.2.6 0 .1.1.1.2.1.4 0 .1.1.2.2.3.2.2.5.2.7.3.5.1 1 .1 1.6 0 .5 0 1-.1 1.5-.2.4-.1.8-.1 1.1-.1.4 0 .9.1 1.3.3.8.3 1.8.9 1.9 1.9 0 .5-.2.9-.5 1.3-.1.2-.3.3-.5.5l-.4.3s.2.2.2.3c.4.5.8 1.1.9 1.8.2.7.1 1.4 0 2.2-.2.8-.4 1.5-.7 2.2-.1.3-.3.7-.3 1-.1.4-.1.8-.1 1.1 0 .4 0 .8.2 1.1.1.2.2.3.3.4.1.1.3.2.4.3.1.1.3.1.4.3.1.2 0 .3-.1.5-.1.1-.2.3-.3.4-.1.1-.3.2-.4.3-.2.2-.3.6-.3 1 0 .2 0 .4.1.5s.2.3.3.4c.1.1.2.2.1.4 0 .1-.1.2-.3.3-.3.1-.6-.1-.9-.3l-.1-.1h-.1c-.1.1-.3.2-.4.2-.2 0-.3 0-.5-.1-.1 0-.1-.1-.2-.1l-.1-.1-.1.1c-.1.1-.2.1-.4.2-.2 0-.3 0-.5-.1-.1 0-.1-.1-.1-.1l-.1-.1c-.1.1-.3.3-.5.3-.2.1-.3.1-.5.1 0-.1 0-.2.1-.3.1-.2.2-.3.4-.4.4-.3.9-.4 1.3-.5.3-.1.6-.3.9-.5.2-.2.3-.6.3-.9.1-1.5-1.6-2.2-2.7-2.9-.5-.3-.9-.7-1.3-1.1-.5-.5-1-1-1.7-1.2-1.4-.5-2.8 0-4.1.6l-1.8.9c-.3.1-.6.3-.9.4-.1 0-.6.2-.8.2.3-.4.6-.9.8-1.3.3-.6.4-1.1.4-1.8 0-.3 0-.6-.1-.9l-.2-.7s.2.7.2.8c0 .3.1.6 0 1-.1 1.2-.8 2.3-1.5 3.3-.3.4-.7.9-.4 1.4s.8.5 1.3.5c-.2.4-.4.7-.8.9-.4.3-.8.4-1.3.5.1.3.3.6.3.9 0 .3 0 .6-.2.8s-.4.4-.7.3c-.1 0-.2-.1-.3-.2-.1-.1-.1-.2-.2-.3-.1.1-.1.2-.2.3-.3.3-.9.3-1.2-.1-.1-.1 0-.1-.1 0s-.2.2-.3.2c-.3.1-.6.1-.8 0-.1 0-.2-.1-.2-.1l-.1-.1-.1.1c-.1.1-.2.1-.3.2-.3.1-.5 0-.6-.3-.1-.2 0-.5.1-.6.2-.2.5-.2.8-.3s.6-.1.9-.2c.3-.1.6-.1.9-.2.3-.1.5-.2.7-.5.3-.5.2-1.2.1-1.7-.1-.6-.3-1.1-.5-1.7-.2-.5-.3-1.1-.3-1.7 0-.3 0-.5.1-.8 0-.1.1-.2.1-.4l.1-.2-.1.2c-.5 1-.2 2.1.1 3.1-.1-.1-.5-.2-.5-.3-.3-.1-.5-.3-.7-.4-.5-.3-1-.7-1.4-1.1-.5-.5-.9-1.2-1.1-1.8v-.1c-.1-.3-.1-.7-.1-1 0-.8.3-1.7.8-2.4.6-.9 1.4-1.7 2.4-2.2.2-.1.4-.2.5-.3v.5c0 .1-.1.3-.1.4-.1.2-.1.3-.2.4 0 0-.3.4-.2.4 0 .1.3-.1.3-.1.1 0 .2-.1.3-.1.1-.1.2-.1.3-.2.1 0 .1 0 .2-.1h.1V28.2c0 .1-.1.2-.1.3 0 .1-.1.3-.1.4s0 .1.1.2l.1.1s.1-.1.1-.2c.1-.1.1-.2.2-.3l.3-.3c.1-.1.2-.3.2-.5v-.2l.2.4c0 .1.1.2.1.3-.1.1-.2.4-.1.4z"/>
    <path class="st5" d="M52.4 20.7c.1.3.1.6 0 .9-.2.5-.7.8-1.2.8-.3 0-.6 0-.9-.2-.3-.1-.5-.4-.7-.6-.3-.2-.5-.4-.8-.7 0 0-.6-.4-.6-.5 0 0 1.2.8 1.3.9.2.2.5.4.7.6s.5.3.8.3c.5.1 1-.1 1.3-.5.2-.2.2-.5.2-.8-.1-.3-.3-.5-.5-.6-.3-.1-.6 0-.8.2-.1.1-.1.3-.2.4V21.2l-.1-.1v-.2c0-.1 0-.3.1-.4.1-.2.4-.4.7-.4.3.1.5.3.7.6zM42.5 22.6v-.2c0-.1.1-.3.1-.4.1-.2.4-.3.6-.2.2.1.2.3.3.5s.3.3.5.4.5.1.8.1h.8c.5 0 1-.1 1.5-.2.4-.1.9-.2 1.3-.2s.8 0 1.2.2c.5.2.9.4 1.3.7.4.3.7.7.8 1.1.1.5-.1 1.1-.4 1.5l-.6.6s-.4.4-.5.4c0 0 .3-.3.4-.3l.5-.5c.3-.4.5-.8.5-1.3 0-1-1.1-1.6-1.9-1.9-.4-.2-.8-.3-1.3-.3-.4 0-.8.1-1.1.1-.5.1-1 .2-1.5.2h-1.6c-.3 0-.5-.1-.7-.3-.1-.1-.2-.2-.2-.3 0-.1 0-.3-.1-.4-.1-.2-.5-.2-.6 0-.1.1-.1.2-.1.3v.4zM46 41.3c-.1-.1-.1-.2 0-.3.1-.3.2-.5.5-.6h.1v.1c-.1.1-.3.2-.4.4-.1.1-.1.2-.2.4.2 0 .4-.1.6-.1.2-.1.3-.2.5-.3l.1.1.1.1c.1.1.3.1.5.1.1 0 .3-.1.4-.2l.1-.1.1.1c.1.1.1.1.2.1.2.1.3.1.5.1s.3-.1.4-.2c.1 0 0-.1.1 0l.1.1c.2.2.6.4.9.3.1 0 .3-.1.3-.3 0-.1 0-.3-.1-.4-.1-.1-.2-.3-.3-.4-.1-.2-.1-.3-.1-.5 0-.3.1-.7.3-1 .1-.1.3-.2.4-.3.1-.1.2-.3.3-.4.1-.1.2-.3.1-.5s-.2-.2-.4-.3-.3-.2-.4-.3c-.1-.1-.2-.3-.3-.4-.2-.3-.2-.7-.2-1.1 0-.4.1-.8.1-1.1.1-.4.2-.7.3-1 .3-.7.6-1.4.7-2.2.1-.7.2-1.4 0-2.2-.2-.7-.5-1.3-.9-1.8 0 0-.2-.2-.2-.3.1 0 .5.6.5.6.2.3.4.6.5.9.3.6.3 1.3.3 2-.1.8-.3 1.5-.6 2.2-.1.4-.3.7-.4 1.1-.1.4-.2.7-.3 1.1 0 .4-.1.8 0 1.1 0 .3.2.7.4.9.1.1.3.2.4.3.1.1.3.1.4.3.1.3-.1.7-.3.9-.1.1-.2.2-.4.3-.1.1-.2.2-.3.4-.1.3-.2.7-.1 1 .1.3.5.5.5.8s-.3.6-.6.6c-.2 0-.3-.1-.5-.1-.1 0-.1-.1-.2-.1l-.1-.1h-.1s-.1 0-.1.1c-.1 0-.1.1-.2.1h-.5c-.1 0-.1-.1-.2-.1 0 0-.1 0-.1-.1 0 0 0-.1-.1-.1l-.1.1c-.3.2-.6.2-.9.1 0 0-.3-.2-.2-.2-.2.2-.4.3-.7.3H46c.1.1 0 .1 0 0-.1.1-.1 0 0 0zM51 21.3z"/>
    <path class="st5" d="M40.2 22.2s-.1 0 0 0c-.1 0-.2-.2-.2-.2-.1-.1-.2-.2-.2-.3-.1-.2-.2-.5-.3-.7-.1-.6 0-1.2.2-1.7.5-1 1.6-1.6 2.8-1.7.9-.1 1.8 0 2.6.2 1.1.3 2.2.7 3.1 1.3.9.6 1.6 1.6 2.6 2 0 0 .2.1.3.1 0 0-.5-.2-.6-.2-.2-.1-.5-.3-.7-.4-.4-.4-.9-.8-1.3-1.1-.9-.7-2-1.1-3-1.5-.8-.2-1.7-.4-2.6-.4-1.1 0-2.2.4-2.9 1.3-.4.5-.6 1.1-.5 1.8 0 .3.1.6.3.9.1.1.1.2.2.3-.1.1.1.3.2.3zM49.2 23.6c.7.2 1.2.9 1 1.6s-.8 1-1.4 1.2c-1.5.5-3.2.5-4.8.5-1.5 0-3 0-4.6-.2h-.3c.5 0 1.7.1 1.8.1.8 0 1.5.1 2.3 0 .8 0 1.6 0 2.5-.1.8 0 1.6-.1 2.3-.3.6-.1 1.4-.3 1.8-.9.2-.2.3-.5.2-.8 0-.3-.3-.6-.5-.8-.7-.4-1.5-.3-2.2-.1-.8.2-1.6.3-2.4.3-.8 0-1.6-.1-2.4-.3-.4-.1-.7-.2-1.1-.3-.3-.1-.7 0-.9.3v.4-.1-.2c.1-.2.2-.3.4-.3.4-.1.7 0 1.1.1.7.2 1.5.4 2.3.4s1.7 0 2.5-.2c.8-.3 1.6-.5 2.4-.3zM50.2 26.9zM46.3 35.7c1.1.7 2.7 1.3 2.7 2.9 0 .3-.1.6-.3.9-.2.3-.5.4-.9.5s-.9.2-1.3.5v-.1-.1c.3-.2.8-.4 1.2-.5.3-.1.7-.2.9-.5.2-.2.3-.6.3-.9 0-.7-.6-1.3-1.1-1.7-.4-.3-.8-.5-1.2-.8h-.1c-.2-.1-.3-.2-.5-.3-.6-.4-1-.9-1.6-1.4-.3-.2-.6-.5-.9-.6-.3-.2-.7-.2-1.1-.3h-.3c-.7 0-1.3.2-1.9.4-1.4.5-2.6 1.4-4 1.8 0 0-.2.1-.3.1.2 0 .7-.2.8-.2.3-.1.6-.2.9-.4l1.8-.9c1.3-.6 2.7-1.1 4.1-.6.7.2 1.2.7 1.7 1.2.3.4.7.7 1.1 1zM48.8 21.7s-.1 0-.2-.1c.1 0 .2 0 .2.1 0-.1 0-.1 0 0z"/>
    <path class="st5" d="M48.8 21.7s-.6-.1-.7-.1c-.2-.1-.4-.1-.6-.2-.2-.1-.4-.3-.5-.4s-.2-.2-.2-.3v-.2l.1.2c.1.1.2.2.2.3.2.1.4.3.5.4l.6.3s.2.1.4.1c.1-.2.2-.1.2-.1zM48.8 21.6s-.1 0-.2-.1c-.1 0-.1-.1-.1-.1l-.3-.3c-.1-.2-.2-.5-.2-.8v.2c0 .2.1.3.2.4.1.1.1.2.2.3l.4.4zM48.1 20.4zM47.1 37.3c.2.1.2.3.2.5 0 .1-.1.3-.2.4-.3.3-.7.6-.8 1-.1.2-.1.5 0 .7 0 .1.1.2.1.3 0 0 .1.1.1.2l-.1-.1c-.1-.1-.1-.2-.2-.3-.1-.2-.1-.4-.1-.6 0-.5.4-.8.7-1.1.1-.1.3-.3.3-.4 0-.2.1-.4 0-.6-.3 0-.5.1-.7.1s-.3-.2-.4-.4 0-.5.2-.7l.4-.4c-.1.1-.3.3-.3.4-.1.2-.2.4-.2.6 0 .2.2.4.4.4.1 0 .4-.1.6 0zM46.8 20.3v.1s-.1-.1 0-.1zM46.8 20.3zM46.8 20.3z"/>
    <path class="st5" d="M46.8 20.3V20.6c0 .1-.1.3-.2.4-.2.2-.4.3-.6.4h-.4.2c.3 0 .5-.1.7-.3.1-.1.2-.2.3-.4 0-.1.1-.2.1-.2-.2 0-.2-.2-.1-.2zM46.6 35.9s-.1.1 0 0c-.1.1-.1.1 0 0-.1 0 0 0 0 0zM46.4 40.4c.1 0 .1 0 0 0 .1 0 .1 0 0 0 .1 0 0 0 0 0zM46 41.3c-.1 0-.1 0 0 0zM45.9 41.3h-.5c-.1 0-.2-.1-.3-.1-.1-.1-.2-.2-.3-.2-.2.4-.8.4-1.1.1-.2.2-.3.3-.6.3s-.6-.1-.8-.3c-.2.2-.6.5-.9.2-.1-.1-.2-.3-.1-.5s.2-.3.4-.4c.3-.2.7-.4 1-.4.3-.1.6 0 .9-.1.4-.1.5-.5.5-.9s-.1-.8-.2-1.2c-.2-.8-.8-1.4-1.2-2.1-.2-.4-.4-.8-.5-1.2-.2-.3-.2-.5-.2-.7 0 0 0-.3.1-.5v.4c0 .2 0 .4.1.5.1.4.3.8.5 1.1.4.7 1 1.3 1.3 2.1l.3 1.2c0 .4.1.8-.2 1.1-.4.3-.7.3-1 .3-.4 0-.7.1-1 .3-.2.1-.4.2-.5.4-.1.1-.2.4-.1.5.1.2.4.1.5 0l.3-.3c.2.2.3.3.6.4.2 0 .4 0 .6-.1.1-.1.2-.1.2-.2.1.2.3.3.6.3.2 0 .4-.1.5-.3.2.1.4.3.6.3.1 0 .3.1.4.1 0-.1.1-.1.1-.1zM45.8 20c.1.3 0 .6 0 .8 0 0-.2.6-.3.6l.2-.5c.1-.3.1-.6 0-.8-.1-.2-.1-.5-.3-.6-.1-.1-.2-.2-.4-.2 0 0-.2 0-.3-.1h.3c.1 0 .3.1.4.2.2.1.4.3.4.6zM45.5 21.4zM45.5 21.4z"/>
    <path class="st5" d="M43.4 21.4c.1 0 .3 0 .3-.1.1 0 .3-.1.4-.1.3-.1.5-.3.7-.6.1-.2.2-.5.2-.8 0-.2-.1-.3-.1-.5l-.2-.3c.1.1.2.3.2.3.1.2.1.3.2.5 0 .3-.1.6-.2.8-.2.3-.4.5-.7.6-.2.1-.3.1-.5.1 0 .1-.3.1-.3.1zM44.7 19.1z"/>
    <path class="st5" d="M43.7 19.8c.1.3.1.6.1.9 0 .2-.1.3-.1.5 0 0-.1.2-.2.2l.1-.3c.1-.1.1-.3.1-.4 0-.3 0-.6-.1-.8-.1-.3-.2-.5-.4-.7-.2-.1-.4-.2-.5-.2l-.3-.1h.3c.1 0 .3.1.4.2.3.1.5.4.6.7zM43.4 21.4zM43.4 21.4zM43.4 21.4zM42.8 20.8s.2.1.2.2c-.1 0-.2-.1-.2-.2h-.3c-.2 0-.4-.1-.6-.1-.2 0-.4 0-.5.1-.1 0-.2.1-.2.2l-.1.1v.1s0-.2.1-.3c.1-.1.1-.2.2-.2.2-.1.4-.2.6-.2.2 0 .4 0 .6.1 0 .1.1.2.2.2zM43 21z"/>
    <path class="st5" d="M43 21l-.2.1c-.1 0-.2.1-.3.2s-.2.3-.3.4c-.1.2-.1.4 0 .5 0 .1.1.2.1.3 0 0 .1.1.1.2l-.2-.1c-.1-.1-.1-.2-.2-.3-.1-.2-.1-.4 0-.6s.2-.3.4-.4c.1-.1.2-.1.3-.1.1-.2.2-.2.3-.2zM42.5 22.6zM42.5 22.6zM42.4 18.9v.3c0 .2-.1.4-.1.5-.1.1-.1.3-.3.4s-.2-.2-.3-.3c-.1-.3-.4-.3-.7-.2-.3.1-.6.5-.6.8 0 .2 0 .4.1.6 0 .1.1.1.2.2 0 0 .1.1.2.1h-.1c-.1 0-.1-.1-.2-.2s-.2-.3-.2-.5c-.1-.4.1-.7.4-1 .2-.2.5-.3.8-.2.2.1.3.2.3.4 0 .1 0 .2.1.2s.2-.1.2-.2c.1-.2.2-.4.2-.6-.1.1 0-.3 0-.3zM42.4 18.9zM42.1 33.3zM41 21.3zM40.8 27.7l-.2.2c-.1.1-.2.1-.4.2s-.5.1-.7 0c-.3-.1-.5-.2-.8-.3 0 0-.3-.2-.4-.3v-.1c.1 0 .4.2.4.3.2.1.5.2.8.3.2 0 .4.1.7 0 .1 0 .3-.1.4-.1-.1-.1.1-.1.2-.2zM40.8 27.7zM40.8 27.7zM40.8 27.7zM40.8 27.7z"/>
    <path class="st5" d="M40.8 27.7c-.2 0-.5-.1-.5-.1-.2-.1-.4-.1-.5-.2-.2-.1-.3-.2-.4-.4 0 0-.3-.3-.3-.4l.3.3c.1.1.3.2.5.3.1.1.3.2.4.3 0 .1.4.2.5.2zM40.6 24.2zM40.6 24.2c0 .1-.4-.3-.5-.3-.2-.1-.3-.3-.3-.5v-.6s.2-.5.3-.5l-.1.2c0 .1-.1.2-.1.3v.6c0 .2.1.4.3.5.1 0 .3.2.4.3zM40.6 24.2zM40.2 22.2c-.1 0 0 0 0 0zM39.7 25.5zM39.7 26.5zM39.7 25.5zM39.7 25.5zM39.7 26.5zM39.7 25.5zM39.7 25.5zM39.7 25.5zM39.7 26.5c-.1 0 0 0 0 0zM37.4 24.1s.1.2.1.3c.1.1.1.2.2.3.2.2.3.3.5.4s.4.2.7.3c.1 0 .3.1.4.1H39.6c0 .1-.6 0-.7 0-.1 0-.3-.1-.4-.1v-.1.1c-.1 0-.2-.1-.3-.1-.2-.1-.4-.3-.6-.5-.1-.1-.2-.2-.2-.4.1-.1 0-.3 0-.3zM39.7 25.5c-.1-.1 0 0 0 0z"/>
    <path class="st5" d="M39.7 25.5c-.2 0-.4-.1-.5-.1-.2-.1-.4-.2-.5-.4-.1-.1-.2-.3-.2-.5V24v.5c0 .2.1.3.2.5s.3.3.5.4c.1-.2.5 0 .5.1zM39.7 26.5c-.2 0-.4 0-.4-.1-.2-.1-.3-.1-.4-.3-.1-.1-.2-.3-.2-.4 0 0-.1-.3-.1-.4h.1v.1c0 .1 0 .2.1.2.1.1.1.3.3.4l.3.3c.1 0 .2.1.2.1-.1 0 0 .1.1.1zM39.7 26.5zM39.6 18.2c.1 0 0 .5 0 .6 0 .2-.1.5-.2.7-.1.2-.3.4-.5.6l-.3.3s-.1 0 0 .1l.1.1c.7.7.4 1.7.3 2.5v.8s.1.4.1.5c-.1-.1-.2-.5-.2-.5v-.7c0-.5.1-1 .1-1.5-.1-.4-.2-.8-.5-1l-.1-.1.1-.1.1-.1c.2-.2.4-.4.5-.6.2-.2.3-.5.4-.7 0-.1 0-.3.1-.4v-.2-.3z"/>
    <path class="st5" d="M39.5 26.5c.1 0 .1 0 0 0l-.2.1h-.5c-.3 0-.5 0-.8-.1-.2-.1-.5-.2-.6-.4-.1-.1-.2-.2-.2-.4l-.1-.3.2.3c.1.1.2.2.2.3.2.2.4.3.6.4.2.1.5.1.8.1H39.5zM39.6 18.2v0zM36.4 18h.2c.1 0 .3 0 .4.1.3.1.5.3.7.5.2.1.3.2.5.3.3.1.6.1.8 0 .1-.1.3-.1.4-.3 0-.1.1-.1.1-.2 0 0 0-.1.1-.1v.1c0 .1-.1.2-.1.2l-.3.3c-.2.1-.5.1-.7.1s-.5-.1-.6-.2l-.6-.6c-.1-.1-.3-.1-.4-.2h-.5c.1 0 0 0 0 0zM39.2 24.3zM39.2 24.3c0 .1-.4-.1-.4-.1-.1-.1-.2-.1-.3-.3v-.1.1c-.2-.2-.2-.5-.3-.8s-.1-.5-.3-.8l-.3-.3s-.2-.1-.3-.1c0 0 .3.1.4.1l.3.3c.2.2.3.5.3.8.1.3.1.6.3.8l.3.3s.2.1.3.1zM39.2 24.3z"/>
    <path class="st5" d="M39.2 26.7H39c0-.1.1-.1.2 0z"/>
    <path class="st5" d="M39.1 26.7c-.1 0-.1 0 0 0-.1-.1 0 0 0 0z"/>
    <path class="st5" d="M39.1 26.7s-.1 0 0 0c-.1 0-.1-.1 0 0-.1-.1-.1-.1 0 0-.1-.1 0 0 0 0zM39 26.6zM39 26.6zM38.6 22s.2.1.2.2c0 0-.2 0-.2-.1-.1 0-.2-.1-.2-.2s-.1-.1-.1-.2-.1-.2-.1-.3c0 0 0 .1.1.1.1.1.1.2.2.2 0 .2.1.3.1.3zM38.6 29.2c0-.1-.1-.4-.1-.4 0-.2-.1-.3-.1-.5s-.1-.3-.1-.5l-.1-.4.1.1c.1.2.2.7.2.8.1.1.2.9.1.9z"/>
    <path class="st5" d="M37.1 27.8l.3.4c.1.1.2.3.4.4.1.1.2.2.4.3.1.1.2.1.3.1 0 0 .2 0 .2.1h-.2c-.1 0-.2-.1-.3-.1-.2-.1-.3-.2-.5-.3-.1-.1-.2-.3-.3-.4-.1 0-.3-.4-.3-.5zM38.6 29.2zM38.5 25.3c.1 0 .1 0 0 0 .1.1 0 .1 0 0zM38.5 24c0-.1 0-.1 0 0v-.1.1zM38.5 19.5l-.2.2c-.1.2-.2.3-.3.3-.2.1-.4.3-.6.3-.2.1-.5.1-.7.1h-.4s-.2 0-.3-.1h.7c.2 0 .4-.1.6-.1l.6-.3c.1-.1.2-.1.3-.2.1 0 .3-.2.3-.2zM38.3 27.4s0 .1 0 0c0 .1 0 0 0 0zM38.3 27.4zM38.3 27.4zM37.5 22.1c.1.2.1.4.1.6 0 .1-.1.3-.2.4l-.2.3v-.1c0-.1.1-.2.1-.2 0-.1.1-.3.1-.4v-.6c0-.1-.1-.1-.1-.2l.1.1.1.1zM37.4 24.1zM37.1 24.1s.3-.1.3 0h-.1c-.1 0-.1 0-.2.1-.1 0-.1.1-.1.2v.3l.1.1s-.1 0-.1-.1c-.1-.1-.2-.3-.1-.5 0 0 .1-.1.2-.1zM37.4 24.1zM37.4 24.1zM37.3 21.9zM37.2 23.3v.1-.1z"/>
    <path class="st5" d="M37.2 23V23.3 23l-.3-.3c-.1-.1-.2-.2-.3-.2l-.2-.2s.1.1.2.1.1.1.2.1c.1.1.2.1.3.2 0 .1.1.2.1.3zM37.1 25.5zM37.1 27.8zM37.1 27.8zM37.1 25.5c0 .1-.1.2-.1.3v.7c0-.1-.1-.2-.1-.2V26c0-.1 0-.2.1-.3-.1-.1.1-.3.1-.2zM36.7 28.1s.4-.4.4-.3c0 .1-.3.4-.4.3 0 .2-.1.3-.2.5-.1.1-.2.3-.3.4 0 0-.1.3-.2.4 0-.1 0-.2.1-.4v-.1c.1-.2.1-.3.2-.5.2 0 .3-.1.4-.3zM37.1 24.8zM37.1 24.8c0 .1-.3-.1-.4-.1-.1-.1-.2-.1-.3-.2s-.2-.2-.2-.3V23.9c0 .1.1.2.1.2.1.1.1.2.2.3.1.1.2.2.3.2 0 0 .1.1.2.1 0 .1 0 .1.1.1-.1 0 0 0 0 0z"/>
    <path class="st5" d="M37.1 24.8s-.1 0 0 0c-.1 0-.1-.1-.1-.1 0 .1.1.1.1.1zM35.7 35.6c0 .1-.1.2-.1.3-.3.4-.8 1-.4 1.5.3.4.9.4 1.4.4-.2.4-.4.8-.8 1.1-.4.3-.8.5-1.3.5.3.5.4 1.2 0 1.7-.2.2-.5.4-.8.4-.1 0-.3-.1-.4-.1l-.1-.1-.1-.1c-.3.3-.8.4-1.2.2-.1 0-.1-.1-.2-.1l-.1-.1s-.1.1-.2.1c-.2.1-.5.2-.7.2-.1 0-.3-.1-.4-.1 0 0-.1 0-.1-.1l-.1-.1-.1.1c-.1.1-.2.1-.4.2-.3.1-.5 0-.7-.3-.1-.2-.1-.6.1-.8.1-.2.3-.2.5-.3.3-.1.6-.1.9-.2.3-.1.6-.1.9-.2.3-.1.6-.1.8-.3.2-.2.3-.4.4-.7v-.9c-.1-.6-.3-1.1-.5-1.7V36c-.3-1-.6-2.1-.1-3.1l.1-.2-.1.2c-.1.1-.1.2-.1.4-.1.3-.1.5-.1.8 0 .6.1 1.1.3 1.7.2.6.4 1.1.5 1.7.1.5.2 1.2-.1 1.7-.2.3-.4.4-.7.5s-.6.2-.9.2c-.3.1-.6.1-.9.2-.2.1-.6.1-.8.3-.2.2-.2.4-.1.6.1.3.4.4.6.3.1 0 .2-.1.3-.2l.1-.1.1.1c.1.1.1.1.2.1.3.1.5.1.8 0 .1 0 .2-.1.3-.2.1-.1.1-.1.1 0 .3.3.8.4 1.2.1.1-.1.1-.2.2-.3 0 .1.1.2.2.3.1.1.2.2.3.2.3.1.6-.1.7-.3.2-.2.2-.5.2-.8s-.2-.6-.3-.9c.5-.1.9-.2 1.3-.5.3-.2.6-.5.8-.9-.5 0-1.1-.1-1.3-.5-.3-.5.1-1 .4-1.4.7-1 1.4-2 1.5-3.3v-1l-.2-.8s.2.6.2.7c.1.3.1.6.1.9 0 .6-.2 1.2-.4 1.8-.1.5-.3.9-.7 1.3zm-2.5 5.5zM36.9 26.4zM36.9 26.4zM36.9 26.4c-.1-.1-.1-.2-.1-.2.1.1.1.2.1.2zM36.9 26.4zM36 25.1v.2c.1.2.3.4.5.5l.3.3V26.4c0-.1-.1-.2-.1-.2l-.3-.3s-.1 0-.1-.1-.1-.2-.2-.2v.1c-.1-.1-.2-.2-.2-.3.1 0 0-.2.1-.3-.1 0-.1 0 0 0zM36.8 18.5c0 .1-.1.3-.1.4l-.2.2.1-.2c.1-.1.1-.2.1-.3 0-.1 0-.2-.1-.3l-.2-.3h.1l.2.2c0 .1.1.2.1.3zM36.7 21.1l-.5.1h-.6c-.2 0-.4-.1-.6-.2-.1 0-.2-.1-.3-.2l-.1-.1v-.1l.1.1c.1.1.2.1.3.1.2.1.4.1.6.1.2 0 .4.1.6.1 0 .1.5.1.5.1zM36.7 21h-.3c-.1 0-.2-.1-.2-.1-.1-.1-.1-.1-.1-.2s-.1-.2-.1-.3l.1.1c.1.1.1.2.2.2l.2.2.2.1zM36.4 23.6c0-.1.1-.1.1-.1v-.2-.3c0-.1-.1-.2-.1-.4V22.3v.1c0 .1.1.1.1.2s.1.2.1.3v.4c0 .1-.1.3-.2.3z"/>
    <path class="st5" d="M36.4 27v-.2-.6-.3-.2l.1.1c0 .1 0 .1.1.1 0 .1.1.2.1.4-.2.1-.3.7-.3.7zM36.5 19.1zM36.5 19.1s-.2-.1-.2-.2c-.1-.1-.2-.2-.3-.2-.2-.1-.3-.2-.5-.3-.2-.1-.4-.2-.6-.2h-.3H34.3h.7c.2 0 .4.1.6.2.2.1.4.2.5.4 0-.2.3.2.4.3zM36.4 18s.1 0 0 0c.1 0 0 0 0 0zM36.4 23.5c0 .1 0 .1 0 0 0 .1 0 .1 0 0 0 .1 0 .1 0 0zM36.4 23.6zM36.4 23.6s0-.1-.1-.2c0-.1-.1-.1-.1-.2-.1-.1-.1-.2-.2-.3l-.3-.3-.1-.1c.1 0 .3.1.3.2l.3.3c.1.1.1.2.2.3v.3zM36.3 26.9v.2c.1-.1 0-.1 0-.2zM36.4 22.3c0 .1 0 .1 0 0 0 .1 0 .1 0 0z"/>
    <path class="st5" d="M36.4 27l-.2-.3-.3-.3c-.1-.1-.2-.2-.3-.2l-.3-.2s.3.1.4.1c.1.1.3.1.4.2l.3.3s.1.1.1.2c-.2.2-.1.2-.1.2zM36.4 25.8l-.1-.1v-.1c-.1 0 0 .1.1.2zM36.2 24.4v.3s-.1.3-.2.2c0-.1.1-.2.1-.3v-.3s0-.6.1-.6v.7z"/>
    <path class="st5" d="M36.2 23.9v.2c0-.1-.1-.2 0-.2zM35.5 26.9l.2.2c.1.1.2.2.2.3.1.2.2.5.2.7v1c0 .1-.1.3-.1.3v-.6c0-.2 0-.5-.1-.7 0-.2-.1-.5-.2-.7 0-.1-.1-.2-.2-.3.1 0 0-.1 0-.2z"/>
    <path class="st5" d="M36.1 29.1c0 .1 0 .3-.1.4v-.1s.1-.2.1-.3zM36 24.9zM36 24.9zM36 24.9zM36 24.9zM36 24.9s-.4-.5-.4-.6c-.1-.1-.1-.2-.3-.2L35 24h.4c.1 0 .2.1.3.2s.1.2.2.3c0 .1.1.3.1.4zM36 29.5zM36 29.5zM36 20.3zM36 25.1c-.1 0-.1 0 0 0zM36 25.1zM36 25.1zM36 25.1c-.1 0-.1 0 0 0-.1 0-.1 0 0 0-.1.1-.2.1-.2.2l-.1.1c-.1.1-.1.1-.1.2v-.1c0-.1.1-.2.1-.2 0-.1.1-.1.2-.1-.1-.1 0-.1.1-.1zM35.6 23.7c0-.1.1-.1.1-.1 0-.1.1-.1.1-.2v-.3c0-.1 0-.3-.1-.4 0-.1-.1-.1-.1-.2h.1s0 .1.1.1c.1.1.1.1.1.2.1.1.1.2.1.3s0 .2-.1.3l-.3.3zM35.8 35.6c-.1 0-.1 0 0 0-.1 0-.1 0 0 0zM35.6 22.5s-.1 0 0 0c-.1 0 0 0 0 0zM35.6 23.7l-.1-.3c0-.1-.1-.2-.1-.3 0-.1-.1-.1-.2-.2 0 0-.1 0-.2-.1h-.1c0-.1.3 0 .3 0 .1 0 .2.1.3.2s.1.2.1.3v.4zM35.6 23.7zM35.6 23.7zM35.5 25.5v0z"/>
    <path class="st5" d="M35.5 25.6c0 .1 0 .1 0 0 0 .1 0 .1 0 0l-.1-.2c0-.1-.1-.1-.1-.2-.1-.1-.1-.2-.2-.2l-.1-.1s-.1 0 0-.1c.1 0 .2.1.3.1l.2.2c.1.1.1.2.1.3v.1c-.1 0-.1.1-.1.1zM34.9 28.7s0-.1 0 0l.2-.4c.1-.1.1-.3.1-.4 0-.2.1-.3.1-.5l.1-.4c0 .2-.1.8-.1.9s-.1.3-.2.4c.1 0-.1.4-.2.4zM35.5 26.9zM35.2 26.3v.2c0 .1 0 .2-.1.3l-.1.2v-.1-.1-.2l.1-.5c.2 0 .1.2.1.2zM35.2 26zM35 23.7v-.2-.2-.4h.1c0 .1.1.1.1.2v.2c-.1 0-.2.4-.2.4zM35 26.8c0 .1 0 .1 0 0 0 .1 0 .1 0 0 0 .1 0 .1 0 0zM35 26.8c0 .1 0 .1 0 0 0 .1 0 .1 0 0 0 .1 0 .1 0 0 0 .1-.1-.2-.1-.2-.1-.1-.1-.2-.2-.3-.1-.1-.1-.2-.2-.2 0 0-.2-.2-.3-.2 0-.1.3.1.3.1.1.1.2.1.3.2s.1.2.2.3v.3zM35 26.9zM35 23.7h-.2c-.1 0-.2-.1-.3-.1l-.2-.2-.1-.1v-.2l.1.1.2.2.2.2s.2.1.3.1zM35 23.7zM35 23.7zM34.9 28.3V28.6c0 .1-.1-.2 0-.3-.1-.1-.2-.2-.2-.3 0-.1-.1-.2-.1-.3 0 0-.1-.2-.2-.2 0 0 .2.2.3.2.1.1.1.2.2.3v.3zM34.9 28.6s0 .1 0 0c0 .1 0 0 0 0zM34.9 28.7zM34.9 22.8s.1 0 0 0zM34.9 21.3zM34.9 21.3h-.2c-.1 0-.1-.1-.2-.2 0-.1-.1-.1-.1-.2v-.3.1c0 .1.1.2.1.2 0 .1.1.1.1.2.2.1.3.2.3.2z"/>
    <path class="st5" d="M34.9 21.4s-.7-.2-.8-.3c-.4-.1-.7-.2-1.1-.3-.3-.1-.6-.1-.8.1-.3.2 0 .7.3.6.2 0 .3-.2.3-.3 0-.1-.1-.2-.1-.2l-.2-.1h.2c.1 0 .1.1.2.2.1.2 0 .4-.2.5-.4.2-.8-.1-.7-.5.1-.3.4-.4.7-.4.2 0 .4.1.6.1.2.1.4.1.6.2 0 0 1 .3 1 .4zM34.9 24.8l-.2.1c-.1.1-.1.1-.1.2s0 .2-.1.3v.1l-.1-.1V25c0-.1.1-.1.2-.2.1 0 .3-.1.3 0zM34.8 18.4c0 .2-.1.5-.2.6 0 0 0-.1.1-.1.1-.1.1-.2.1-.4 0-.1 0-.2-.1-.3l-.2-.2h.1c.1 0 .1.1.1.1 0 .1 0 .2.1.3zM34.5 20.7c0-.1 0 0 0 0z"/>
    <path class="st5" d="M34.5 25.4c0 .1 0 .1 0 0 0 .1 0 .1 0 0 0 .1-.5-.3-.5-.3-.1-.1-.2-.2-.4-.3l-.2-.2s.1.1.2.1c.1.1.3.2.4.3.1 0 .3.2.5.4-.1 0 0 0 0 0 0 .1 0 .1 0 0z"/>
    <path class="st5" d="M34.5 25.4c0 .1 0 .1 0 0 0 0-.1 0 0 0zM31.9 18.7c0-.1.6-.2.6-.2h.7c.2 0 .5.1.7.2.1.1.2.1.3.2 0 0 .2.1.2.2 0 0-.2-.1-.2-.2-.1-.1-.2-.1-.3-.2-.2-.1-.4-.1-.7-.2h-.7c-.1 0-.2 0-.4.1.1 0-.1 0-.2.1.1 0 0 0 0 0zM33.7 28.8l.1-.1c.1-.1.1-.2.1-.2.1-.1.1-.2.2-.4.1-.1.1-.2.2-.4l.1-.4c0 .1-.1.3-.1.4s-.1.3-.1.4c-.1.1-.2.3-.3.4 0 .1-.2.3-.2.3zM34.4 27.4zM34.4 27.4zM34.4 27.4zM34.4 18.1zM34.4 18.1zM34.4 18.1zM34.4 18.1zM34.4 18.1zM34.2 26zM34.2 26zM34.2 26s-.2.1-.2.2c-.1.1-.2.1-.2.2-.1.1-.1.2-.2.3l-.1.2V26.6c0-.1.1-.2.2-.3.1-.1.2-.1.3-.2 0-.1.2-.2.2-.1zM34.2 26zM33.9 23.9s.1-.1.1-.2.1-.1.1-.2.1-.1.1-.2v-.2s0 .1.1.1V23.5c0 .1-.1.1-.1.2-.2.1-.3.2-.3.2z"/>
    <path class="st5" d="M34.2 23.3s0-.1 0 0c0-.1-.1-.1-.1-.1.1-.1.1 0 .1.1zM33.9 23.9c0 .1-.3-.1-.4-.1-.1-.1-.2-.1-.3-.2s-.1-.2-.1-.3v-.4s.1.3.1.4.1.2.2.3c.1.1.1.2.2.2 0-.1.2 0 .3.1zM33.7 28.1c.1.1.1.3.1.4v.2c0 .1-.1.1-.1.1v-.4-.3c-.1 0-.2-.2-.3-.4v-.2c.1.1.2.2.2.3 0 .1.1.2.1.3z"/>
    <path class="st5" d="M33.7 28.7c0 .1 0 .1-.1.1 0 0 .1 0 .1-.1zM33 25.7s.2.2.3.2c.1.1.1.2.2.3 0 .1 0 .2.1.3v.1c0 .1-.1.2 0 .2l-.1-.3c0-.1-.1-.2-.1-.3 0-.1-.1-.2-.1-.3-.1 0-.3-.1-.3-.2z"/>
    <path class="st5" d="M33.5 26.6v.2c-.1 0 0-.2 0-.2zM32.5 29.1c0-.2.1-.4.2-.4.1-.1.2-.3.3-.4s.2-.2.2-.4c0-.1.1-.2.1-.3v-.1s0 .1.1.2v.2c0 .2-.1.3-.2.5l-.3.3c-.1.1-.1.2-.2.3-.1 0-.2.1-.2.1z"/>
    <path class="st5" d="M33.4 27.6v.1c-.1 0-.1-.1 0-.1l-.1-.1.1.1zM33.3 27.5zM33.3 27.5zM33 25.7zM33 25.7l-.1.2c0 .1 0 .1-.1.2 0 .1-.1.2-.1.3v-.2-.2c0-.1.1-.1.1-.2 0 .1.2-.1.2-.1zM32.6 26.4c0 .1.1.1 0 .2v-.2zM32.7 27.9v.2c0 .1-.1.3-.1.4s-.1.2-.1.3v.4l-.1-.1c0-.1 0-.1-.1-.2 0-.1 0-.3.1-.4 0-.1.1-.2.1-.3.1-.2.1-.3.2-.3-.1 0-.1-.1 0 0l-.1-.1.1.1z"/>
    <path class="st5" d="M32.7 26.6s-.1-.1 0 0c-.1-.1-.1-.2-.2-.2s-.1-.1-.2-.1l-.2-.2v-.2l.1.1c.1 0 .1.1.2.1l.2.2v.1c0 .1 0 .2.1.2zM31.3 28.2s.1 0 0 0l.1-.1c.1 0 .1-.1.2-.1.1-.1.2-.1.3-.2.1-.1.2-.1.3-.1h.2s.1 0 .1.1h-.1c-.1 0-.1 0-.2.1-.1 0-.2.1-.3.2-.1.1-.2.1-.3.1 0-.1-.3.1-.3 0zM32.6 27.8zM32.5 29.1zM32.2 18.9c.1.1 0 .3 0 .4-.2.3-.5.4-.8.5-.5.1-1 .2-1.6.3 0 0-.8.2-.8.1.2-.1 1.4-.4 1.5-.4.2 0 .4-.1.5-.1.3-.1.6-.1.9-.3.1-.1.2-.2.2-.4 0-.1 0-.2-.1-.2l-.1-.1h.1c.1 0 .2.1.2.2zM32.2 36.1c-.1 0-.1 0 0 0zM32.1 36.1c-.2 0-1.1-.5-1.1-.5-.3-.1-.5-.3-.7-.5-.2-.1-.4-.3-.6-.5-.7-.6-1.2-1.4-1.4-2.3.1.1.1.1.2.1.2.7.6 1.3 1.1 1.8.4.4.9.8 1.4 1.1.2.1.5.3.7.4-.1.1.3.3.4.4z"/>
    <path class="st5" d="M32.1 26.1c0 .1 0 .2-.1.3 0 0 0 .1-.1.1v.1c-.1.1-.3.2-.5.3-1 .5-1.8 1.2-2.4 2.2-.4.7-.7 1.6-.8 2.4 0 .4 0 .7.1 1l-.2-.2V32c-.1-.9.1-1.8.5-2.6.5-.9 1.2-1.7 2.1-2.3.3-.2.5-.3.8-.4.3-.2.6-.4.6-.6-.1-.1-.1-.2-.1-.2 0 .1.1.1.1.2z"/>
    <path class="st5" d="M32.1 26.1s-.1-.1-.1-.2v-.1l.1.1v.2zM31.6 23.8c.2.2.5.6.4.9-.1.3-.5.3-.8.3-.2 0-.4-.1-.6-.1s-.3 0-.4.1c.2-.2.4-.4.5-.6-.4 0-.8-.1-1.2-.1-.5-.1-1.1-.1-1.5-.4l-.1-.1h-.1c-.1-.1-.2-.2-.3-.4 0-.1-.1-.3 0-.4s.2-.1.4-.1c.6.2 1.3.4 1.9.5.2 0 1.5.3 1.8.4 0 .1 0 .1 0 0-.5 0-3.1-.7-3.4-.8-.1 0-.3-.1-.4-.1-.2 0-.2.2-.2.3.1.3.3.5.5.6.4.2.9.2 1.3.3.5.1.9.1 1.4.2l-.3.3c0 .1-.1.1-.1.2h.3c.1 0 .3.1.4.1.2 0 .6 0 .6-.2.1-.2 0-.3-.1-.5.2-.1.1-.2 0-.4 0 .1.1.1 0 0 .1.1 0 .1 0 0-.3-.2-.5-.5-.7-.7-.1-.2-.2-.3-.2-.5v-.4.3c0 .2.1.3.2.5.3.3.5.5.7.8zM31.9 26.5c0 .1.1.4.1.5 0 .2 0 .3-.1.5s-.1.3-.2.4l-.3.3s-.1 0-.1.1l.2-.4c.1-.1.1-.3.2-.4s.1-.3.1-.4v-.3c.1-.1.1-.2.1-.3z"/>
    <path class="st5" d="M31.2 26.5v-.3c0-.1 0-.2.1-.3.1-.2.5-.2.7-.1.1 0 .1.1.1.2l-.1-.1v.1c-.1-.2-.4-.2-.6-.1-.1.1-.2.2-.2.3v.3zM31.9 18.7s.1 0 0 0c.1 0 .1 0 0 0zM31.9 18.7zM31.9 26.5c0-.1 0 0 0 0zM31.6 23.9s.1 0 0 0c.1 0 0 0 0 0zM31.4 28.2s-.1 0 0 0c-.1 0 0 0 0 0zM31.2 26.5zM31.2 26.5H30.9c-.1 0-.2-.1-.3-.2-.1-.1-.1-.2-.1-.3v-.2-.2l.1.2c.1.1.1.3.2.4s.1.2.2.2.1.1.2.1c-.1-.1 0-.1 0 0zM31.2 26.5zM30.8 22.2zM30.7 23c-.1-.1-.1-.2-.1-.3v-.3c0-.1.1-.2.1-.3 0 0 .2-.2.2-.1v.1l-.1.1c0 .1-.1.1-.1.2V23zM30.8 22.2zM30.7 23zM30.7 23z"/>
    <path class="st5" d="M30.6 23c.1 0 .1 0 0 0 0 .1-.2 0-.3 0-.1 0-.2-.1-.3-.2-.1-.1-.1-.2-.2-.2 0-.1-.1-.2-.1-.2v-.1s.1.1.1.2c.1.1.1.2.2.3l.2.2c.2-.1.4 0 .4 0zM30.4 25.6c0-.1 0-.1 0 0zM30.4 25.5v.1c0 .1-.1.3-.1.3l-.3.3c-.1.1-.2.2-.4.2 0 0-.4.2-.4.1l.1-.1c.1 0 .1-.1.1-.1.1-.1.3-.2.4-.3.1-.1.2-.1.3-.2l.3-.3c-.1.2 0 0 0 0zM30.2 35.1l-.2.3c-.1.2-.3.3-.4.4-.3.2-.7.4-1.1.3-.4-.1-.7-.4-1-.7-.2-.2-.3-.6-.6-.6-.2-.1-.4.1-.4.2v.4c-.1-.2-.3-.3-.4-.6s-.1-.6-.1-.9c.1-.2.3-.6.1-.8-.1-.1-.2 0-.4-.1-.1 0-.1 0-.2-.1v-.1l.1.1c.1 0 .2 0 .3.1.3.1.3.4.2.6 0 .1-.1.2-.1.4 0 .1-.1.3 0 .4 0 .1 0 .3.1.4l.1.3V35c0-.1.1-.2.2-.2.1-.1.3-.1.4 0 .3.1.4.4.6.6.2.3.5.5.9.7.4.1.8 0 1.1-.2.2-.1.3-.3.5-.4.1-.1.3-.4.3-.4z"/>
    <path class="st5" d="M29.9 23.1c-.1 0-.1 0 0 0l-.2-.2c0-.1-.1-.2-.1-.2v-.2s.1-.3.1-.2V22.9c.1 0 .2.2.2.2zM29.9 23.1zM29.9 23.1zM29.9 23.1zM29.9 23.1zM29.9 23.1z"/>
    <path class="st5" d="M29.8 23.1c.1 0 .1 0 0 0s-.5-.1-.5-.1c-.3-.1-.5-.2-.7-.4-.4-.3-.8-.8-1-1.3-.2-.4-.3-.9-.2-1.3.1-.5.5-.9 1.1-.9.3 0 .6.2.7.5.1.1.1.3.1.4 0 0-.1.2-.1.3 0 0 .1-.2.1-.3v-.4c-.1-.2-.3-.4-.5-.4-.5-.1-1 .3-1 .8-.1.4 0 .9.2 1.3.2.5.6.9 1 1.3.2.2.5.3.8.5-.4-.2-.1-.1 0 0zM29.8 22.2v0zM29.6 25.5c.1 0 .1.3.1.3 0 .1 0 .2-.1.3 0 .1-.1.2-.2.2l-.1.1c-.1 0-.2.1-.2.1s.2-.2.2-.3c.1-.1.1-.2.2-.2 0-.1.1-.2.1-.3v-.2s.1 0 0 0zM29.6 25.5c.1 0 0 0 0 0zM29.6 25.5c-.1.1-.8.4-.8.4-.1 0-.8.2-.9.2.1 0 .3-.1.3-.1s.1 0 .1-.1c.1 0 .3-.1.4-.1.2 0 .3-.1.5-.1.1-.1.4-.2.4-.2z"/>
    <path class="st5" d="M29.3 26.4c0 .1 0 .1 0 0-.1 0-.1.1-.2.1.1 0 .1 0 .2-.1zM29.1 20.2c-.1 0 0 0 0 0zM29 20.2c.1 0 0 0 0 0zM28.8 25.1c.1 0-.1.3-.1.3-.1.1-.1.2-.2.3 0 0-.1.1-.2.1 0 0-.3.1-.4.1 0 0 .2-.1.3-.2.1-.1.2-.1.2-.2.1-.1.2-.1.2-.2 0 .1.1-.1.2-.2 0 .1 0 0 0 0zM28.8 25.1s0 .1 0 0c0 .1 0 0 0 0z"/>
    <path class="st5" d="M28.7 25.2h.1c-.1 0-.3.1-.3.1h-.8c-.1 0-.1 0-.2.1l-.1.1c0-.1.2-.2.3-.2.1-.1.3-.1.4-.1H28.7zM28.4 32.4s0 .1 0 0c0 .1 0 .1 0 0zM28.4 32.4s-.1 0-.2-.1v-.1c.1.1.1.2.2.2zM28.3 25.9c-.1 0-.3.1-.4.1.1 0 .4-.1.4-.1zM28.2 32.2c-.3-.2-.9-.8-1-.8l-.9-.9-.4-.4-.2-.2c.1 0 .2.1.2.1l.3.3c.2.2.5.4.7.6l.9.9c.1.1.2.3.4.4zM27.9 23.7zM27.9 26zM27.9 26zM27.9 26zM27.9 26zM27.9 26zM27.9 23.7c0 .1-.1.1-.1.1l-.2.2c-.1.1-.2.3-.2.4 0 .2-.1.3-.1.5v.3s0 .1.1.2l-.1-.2c0-.1-.1-.2-.1-.3v-.5c.1-.2.1-.3.3-.4l.2-.2s.1-.1.2-.1zM27.4 25.4c0 .1 0 .1 0 0 0 .1 0 0 0 0zM25.9 28.2c.4.2.6.5.5 1-.1.4-.4.6-.7.7 0 0-.1-.1-.1 0 .2-.1.4-.2.5-.4.2-.3.3-.7 0-1s-.8-.3-1 0c-.1.1-.2.4-.1.5 0 .1.1.1.2.1l.1-.1v.1s0 .1-.1.1H25c-.2-.1-.2-.3-.1-.5s.2-.3.3-.3c.3-.3.5-.3.7-.2zM26 35.7c.3 0 .4.3.4.5s-.2.4-.4.5c-.1.1-.3.1-.4.1h-.2l.5-.2c.2-.1.4-.2.4-.5 0-.2 0-.4-.3-.4h-.2l-.1.1-.1.1v-.1l.1-.1c0 .1.2 0 .3 0zM26.3 16.2s-.3 2.1-.3 2.3c-.1.9-.2 1.7-.3 2.6-.1 1.5-.3 3-.3 4.5 0 .2-.1 2.3-.1 2.6v-2.3c0-.9 0-1.7.1-2.6.1-1.5.3-3 .5-4.5 0-.2.3-2.5.4-2.6zM26.3 16.2z"/>
    <path class="st5" d="M25.8 16.5l.5-.3s-.4.3-.5.3l-.4.4c-.3.3-.6.7-.8 1.1-.4.8-.6 1.7-.8 2.6-.3 1.6-.5 3.3-.5 5v1.6c0 .1.1 1.1.1 1.3 0-.2-.1-1.1-.1-1.1 0-.5-.1-.9-.1-1.4 0-.9 0-1.9.1-2.8.1-.7.2-1.5.3-2.2.2-.9.4-1.9.8-2.7.2-.5.5-.9.8-1.2.2-.3.4-.5.6-.6zM26.1 37.4s-.1.2-.2.2c-.1.1-.2.1-.3.1h-.5s-.1 0-.2-.1h.7c.3-.1.3-.1.5-.2-.1.1-.1.1 0 0 0 .1 0 .1 0 0z"/>
    <path class="st5" d="M26.1 37.4c0 .1 0 .1 0 0-.1 0 0 0 0 0zM26.1 37.4zM26.1 37.4s-.1 0 0 0c-.2 0-.4-.1-.5-.1s-.1-.1-.2-.1l-.2-.2.1.1c.1 0 .2.1.3.1.1 0 .4.2.5.2zM25.8 33.2c.2.1.2.2.2.4s-.2.4-.5.4c-.1 0-.2 0-.3-.1 0 0-.1-.1-.2-.1h.5c.2 0 .4-.1.4-.3 0-.1-.1-.3-.2-.3-.2-.1-.4 0-.6 0v-.3.2c.3 0 .5 0 .7.1z"/>
    <path class="st5" d="M25.9 32.2c0 .2-.2.4-.3.6 0 0 0 .1-.1.1v-.1.1c-.1.1-.3.2-.4.2V33v.1s0-.1-.1-.1v-.2s.1-.1.1-.2h.1c0 .1-.1.1-.1.2v.3c.1.1.3-.2.4-.3s.3-.3.3-.4c0-.1 0-.2-.1-.2v-.1c.1-.1.2 0 .2.1z"/>
    <path class="st5" d="M25.6 32.1s0-.1 0 0l.1-.1c-.1.1-.2.3-.3.4l-.1.1h-.1-.1c-.1 0-.1-.1-.1-.2v-.1-.2c.1-.1.1-.2.2-.3h.1c0 .1-.2.4-.2.4 0 .1-.1.2 0 .2s.1-.1.1-.1c.1-.1.2-.3.3-.4.1-.1.1-.2.1-.3v-.1h.1s.1.1.1.2 0 .2-.1.3c0 0-.1 0-.1.2 0-.1-.1 0 0 0zM25.3 31.2s-.1 0 0 0c-.1.1-.2.1-.2.1-.1 0-.1-.1-.1-.1l.1.1c.1 0 .2-.1.2-.2.1-.1.2-.3.3-.4 0 0 .1-.1 0-.2s-.2 0-.2 0l-.3.3v-.1l.3-.3c.1-.1.2-.1.4 0 .1.1.1.2 0 .3 0 .1-.1.1-.1.2h-.1l-.3.3c.1 0 0 0 0 0z"/>
    <path class="st5" d="M25.8 31c0 .1 0 .2-.1.3v.1c-.1.1-.1.2-.3.3h-.1l-.1.1c-.1 0-.3 0-.3-.1 0 0 .1-.1.1-.2v-.1-.1s0-.1.1-.1h.1l-.1.1c0 .1-.1.2-.1.2-.1.2.2.1.3 0 .1-.1.2-.2.3-.4.1.1.1 0 .2-.1-.1 0-.1-.1 0 0l-.1-.1c.1 0 .1 0 .1.1zM25.7 31.9c0 .1 0 .1 0 0 0 .1-.1.1 0 0-.1.1-.1.2-.1.2V32s.1 0 .1-.1zM25.7 29.9s-.1 0 0 0c-.1 0-.1 0 0 0zM25.7 31.4zM25.7 30.8s-.1 0 0 0c-.1 0 0 0 0 0zM25.6 29.8c0 .1 0 .1 0 0 0 0 0 .1.1.1 0 0-.1 0-.1.1-.4.2-.9.2-1.4.2-.1 0-.3-.1-.3-.1V30c.4 0 .9 0 1.3-.1.2 0 .3 0 .4-.1zM25 33.8c0 .1.1.2.1.2 0 .1.1.1.2.2s.3.2.4.3l-.1.1c0 .1-.1.1-.1.2-.1.1-.1.2-.2.4s-.1.4 0 .6c0 .1.1.2.1.2s.1.1.2.1l-.2-.1-.2-.2c-.2-.2-.2-.4-.2-.6 0-.1.1-.3.2-.4.1-.1.2-.2.2-.3l-.3-.3s-.2-.4-.1-.4zM25.6 32.8c0 .1 0 .1 0 0-.1 0-.1 0 0 0zM25.6 32.1zM25.5 36.1z"/>
    <path class="st5" d="M25.4 31.7c0 .1-.1.1 0 0-.1 0 0 0 0 0zM25.4 28.9v.1c0 .1 0 .1-.1.2s-.2.2-.3.2c-.2.1-.5.2-.7.2s-.5 0-.7-.1c-.1-.1-.2-.1-.3-.2 0 0-.1-.1-.1-.2V29v.1c0 .1.1.1.1.1.1.1.2.1.3.2.2.1.4.1.6.1s.4 0 .6-.1c.1 0 .2-.1.3-.2.1 0 .1-.1.1-.1.1 0 .1-.1.2-.2-.1.1-.1.1 0 0 0 .1 0 0 0 0z"/>
    <path class="st5" d="M25.4 28.9s0 .1 0 0c-.1.1 0 .1 0 0zM25.4 28.9zM25.4 28.9zM25.4 28.9zM25.4 28.9zM25.3 36.9zM25.3 31.2zM25.3 31.2s-.1 0 0 0c-.1 0 0 0 0 0zM25.3 28.2c0 .1 0 .1 0 0 0 .1 0 .1 0 0zM25.3 32.5c-.1 0-.1 0 0 0-.1 0-.1-.1 0 0zM25.1 33s0-.1 0 0c0-.1 0 0 0 0zM25 31s0 .1 0 0c-.1.1-.1.1-.2.1s-.2-.1-.3-.1c0 0 .1.1.2.1h-.2l-.9-.3c-.1 0-.2-.1-.3-.2 0 0-.1-.1-.1-.2s0-.2.1-.2c0 0 .1 0 .1-.1h.1-.1c-.1 0-.1.1-.1.2s.1.2.2.3c.1.1.3.1.4.1s.3.1.4.1c.2.2.5.3.7.2v-.2h.1v.1c0 .1 0 .2-.1.1 0 .1 0 0 0 0zM25.1 30.7c0 .1 0 .1 0 0 0 .1 0 .1 0 0-.1.1 0 0 0 0zM25.1 31.4c0 .1 0 .1 0 0 0 .2 0 .2-.1.3 0-.1 0-.2.1-.3zM25.1 32.1V32.4v-.1c-.1-.1 0-.2 0-.2zM25 32.7v0zM23.7 37.6l.1.3c0 .1.1.2.2.3.1.2.3.3.5.3s.4-.2.4-.4c0-.1.1-.2.1-.2v-.3.3c0 .1 0 .2-.1.4s-.3.4-.6.4c-.2 0-.4-.2-.6-.4-.1-.1-.1-.3-.1-.4.1 0 .1-.2.1-.3z"/>
    <path class="st5" d="M25.1 31.4c0 .1-.1.1-.1.2-.1.1-.2.1-.3.1-.1 0-.2-.1-.2 0h-.3c-.2 0-.4-.1-.5-.1s-.2 0-.3-.1c-.2-.1-.3-.1-.4-.3-.1-.1-.1-.3 0-.4 0-.1.1-.1.1-.2h.1l-.1.1c-.1.1-.1.1-.1.2s0 .3.1.4c.2.2.5.2.8.2.1 0 .2 0 .3.1.1 0 .3.1.5.1s.2-.2.1-.3c0-.1-.1-.1-.2-.1h.2c.2-.1.3 0 .3.1zM25.1 30.7s-.1.1 0 0l-.1.1c0-.1 0-.1-.1-.1-.1-.1-.2-.1-.3-.2 0 0-.4-.2-.6-.2h.2c.1 0 .2.1.3.1.2 0 .5.1.6.3zM25 32.7v.2c-.1.2-.5.2-.7.2-.1-.1-.2-.1-.3-.1s-.2-.1-.2-.1v-.1.1c-.1 0-.1-.1-.2-.1-.1-.1-.2-.2-.2-.4 0-.1 0-.1.1-.2h.1l-.1.1s-.1.1 0 .2c0 .1.1.2.2.3.2.1.5.2.7.2s.6.2.6-.1c0-.1-.1-.2-.2-.3l-.1-.1c.1 0 .1.1.1.1.1 0 .2 0 .2.1z"/>
    <path class="st5" d="M25.1 32.1c0 .1-.1.1-.1.1v.1c-.1.1-.2.1-.3.1-.1 0-.1-.1-.1-.1l.1.1h-.4c-.1 0-.2-.1-.4-.1-.1 0-.2-.1-.3-.1h-.1s-.1 0-.1-.1c-.1-.1-.2-.2-.2-.4 0-.1.1-.1.1-.2h.1s-.1 0-.1.1c0 0-.1.1-.1.2s.1.2.2.3c.1.1.3.1.4.1s.2 0 .4.1h.3c.1 0 .3 0 .4-.1s0-.3-.1-.3c0 0-.2-.1-.3-.1h.1c.1 0 .2.1.2.1.2 0 .3.1.3.2zM25 31s0 .1 0 0c0 .1 0 .1 0 0 0 .1 0 0 0 0zM25 33.8zM24.8 31.2c-.1 0-.3-.1-.3-.1.1 0 .3 0 .3.1z"/>
    <path class="st5" d="M24.7 31.8h-.1c0-.1.1-.1.1 0zM24.7 32.4c-.1 0-.1 0 0 0-.1 0-.1-.1-.1-.1s0 .1.1.1zM24.2 30.2H24c-.1 0-.1-.1-.1-.1s.2.1.3.1z"/>
    <path class="st5" d="M23.9 30.1s.1 0 .1.1h-.5c-.4-.1-.7-.2-1-.5s-.4-.7-.2-1.1c.2-.4.7-.5 1.1-.3v.1c.1.1.2.3.2.5 0 .1-.1.2-.2.2h-.1V29v.1h.1c.1 0 .2 0 .2-.1.1-.1 0-.3-.1-.4-.2-.3-.7-.2-1 0-.3.3-.3.7 0 1 .2.3.6.4 1 .5.1-.1.2 0 .4 0zM23.8 33.9s-.1.2-.1.3l-.3.3s-.1 0-.1.1l.1.1s.1.1.1.2c.1.2.2.5.1.7 0 .1-.1.3-.1.4l-.2.2c0-.1.1-.2.1-.3.1-.1.1-.3.1-.4 0-.3-.1-.5-.3-.7 0-.1-.1-.1-.1-.2l-.1-.1s.1-.1.2-.1l.3-.3c.1 0 .2-.2.3-.2-.1 0 0 0 0 0zM23.8 33.9zM23.8 33.9s-.1 0 0 0c-.1 0 0 0 0 0zM23.8 33.9c0-.1 0 0 0 0z"/>
    <path class="st5" d="M23.5 33.9h.3c-.1 0-.3.1-.3 0-.1.1-.3.1-.4 0-.2-.1-.5-.4-.3-.6.1-.2.4-.3.7-.2.1 0 .1.1.2.1s.1 0 .1-.1v-.3c0 .1.1.4-.1.4-.1 0-.1-.1-.2-.1h-.2c-.1 0-.2 0-.3.1-.2.2 0 .4.2.5 0 .2.2.2.3.2z"/>
    <path class="st5" d="M23.8 32.9c-.1 0-.1 0 0 0-.1-.1-.1-.1 0 0-.1-.1-.1-.1 0 0zM23.7 37.6zM23.7 37.6zM22.7 37.5c0 .1 0 .1 0 0 .1 0 .1.1.1.1s.1 0 .2.1h.2c.1 0 .5-.1.5-.1-.1 0-.2.1-.2.1-.1 0-.2.1-.3.1-.1 0-.2 0-.3-.1-.1 0-.3-.1-.2-.2zM23.5 32.2c.1 0 .1 0 0 0 .1 0 .1 0 0 0zM23.5 31.5z"/>
    <path class="st5" d="M23.5 36.9s0 .1-.1.1c0 .1-.1.1-.1.1 0 .1-.1.1-.2.2 0 0-.3.2-.4.2 0 0 .2-.1.2-.2l.2-.2.2-.2c0 .1.1.1.2 0-.1 0-.1 0 0 0zM23.5 36.9h-.3c-.1 0-.3-.1-.4-.1-.2-.1-.4-.3-.4-.6s.2-.5.5-.5c.1 0 .3.1.4.2 0 .1.1.1.1.2v.1-.1s0-.1-.1-.1c-.1-.1-.2-.1-.3-.1-.2 0-.3.2-.3.4s.2.4.3.5c.1.1.2.1.3.1h.2zM23.5 36.9zM23.4 28.4zM23.4 30.6zM23.4 36.2s-.1 0 0 0c-.1 0-.1 0 0 0zM23.2 28.9s0 .1 0 0c0 .1 0 0 0 0zM23.2 28.9zM22.7 37.6c0-.1 0-.1 0 0z"/>
  </g>
  <g>
    <path class="st4" d="M81.7 30.2c1 0 1.9.2 2.7.5l-.2 1.1c-.8-.4-1.6-.6-2.5-.6-.7 0-1.3.1-1.6.4-.4.3-.5.7-.5 1.2 0 .2 0 .4.1.6.1.2.2.4.5.5.2.1.6.3 1 .4.4.1.7.2.7.2 1.2.3 2 .7 2.4 1.1.4.4.6 1 .6 1.6 0 .4-.1.8-.2 1.2-.2.4-.4.7-.7.9s-.7.4-1.1.6c-.4.1-.9.2-1.4.2-1.3 0-2.3-.2-3.2-.7l.1-1.2c.4.2.8.4 1.4.6.5.1 1.1.2 1.7.2.7 0 1.3-.1 1.7-.4.4-.3.6-.7.6-1.3 0-.3-.1-.5-.2-.7s-.3-.4-.6-.5c-.3-.2-.9-.3-1.8-.6-.7-.2-1.3-.4-1.7-.6-.4-.2-.7-.5-.9-.8s-.3-.7-.3-1.2c0-.4.1-.8.2-1.1.1-.3.4-.6.6-.9.3-.2.6-.4 1-.5.6-.1 1.1-.2 1.6-.2zM92.7 39.9L90.5 36H88.2v3.9H87v-9.6h3.3c.5 0 .9.1 1.3.2s.7.3 1 .5.5.5.6.9c.1.4.2.8.2 1.2 0 .7-.2 1.2-.5 1.7-.3.4-.7.7-1.3.9l2.3 4.1-1.2.1zM88.2 35h2.1c.4 0 .7-.1 1-.2.3-.1.6-.3.7-.6.2-.3.2-.6.2-1 0-.6-.2-1-.5-1.3-.4-.3-.8-.5-1.4-.5h-2.1c-.1 0-.1 3.6 0 3.6zM96.8 39.9h-1.2v-9.6h1.2v9.6zM103.2 38.9h4.8V40h-6v-9.6h1.2v8.5zM117.7 39.9h-1.3l-1.1-2.7H111l-1.1 2.7h-1.2l3.9-9.6h1.2l3.9 9.6zm-6.2-3.7h3.5l-1.7-4.3-1.8 4.3zM126.4 39.9h-1.1l-4.9-7.4v7.4h-1.2v-9.6h1.1l5 7.4v-7.4h1.2v9.6h-.1zM131.3 35.1l4.6 4.8h-1.5l-3.9-4-.7.7v3.3h-1.1v-9.6h1.2V35l4.1-4.7h1.5l-4.2 4.8zM145.4 39.9h-1.3l-1.1-2.7h-4.3l-1.1 2.7h-1.3l3.9-9.6h1.2l4 9.6zm-6.2-3.7h3.5l-1.7-4.3-1.8 4.3z"/>
    <g>
      <path class="st4" d="M84.6 48.8h-5.1V52H84v1.1h-4.5v3.5h5.1v1.1h-6.3v-10h6.3v1.1zM90.7 52.6l3.4 5.1h-1.4l-2.9-4.3-2.9 4.3h-1.4l3.4-5.1-3.2-4.9H87l2.7 4.1 2.7-4.1h1.4l-3.1 4.9zM95.6 47.7h3.7c.6 0 1.1.1 1.5.3s.8.4 1 .7c.3.3.4.6.5 1s.2.7.2 1.1c0 .6-.1 1.1-.4 1.6s-.6.8-1.1 1c-.5.3-1.1.4-1.8.4h-2.4v4h-1.2V47.7zm1.2 1.1v3.8h2.4c.6 0 1.1-.2 1.5-.5s.6-.8.6-1.4c0-.6-.2-1.1-.6-1.4-.4-.3-.9-.5-1.5-.5h-2.4zM108.6 47.5c.7 0 1.3.1 1.9.4.6.2 1.1.6 1.5 1s.8 1 1 1.6.3 1.3.3 2.1-.1 1.5-.3 2.1c-.2.6-.6 1.2-1 1.6-.4.5-.9.8-1.5 1s-1.2.4-1.9.4-1.3-.1-1.9-.4c-.6-.2-1.1-.6-1.5-1s-.8-1-1-1.6-.3-1.4-.3-2.1c0-.8.1-1.5.3-2.1.2-.6.6-1.2 1-1.6.4-.4.9-.8 1.5-1 .5-.3 1.2-.4 1.9-.4zm0 1.1c-.5 0-1 .1-1.4.3s-.8.5-1.1.8c-.3.3-.6.8-.7 1.3-.2.5-.3 1.1-.3 1.7 0 .6.1 1.2.3 1.7.2.5.4.9.7 1.3.3.3.7.6 1.1.8s.9.3 1.4.3c.2 0 .5 0 .8-.1l.9-.3c.3-.2.6-.4.9-.7s.5-.7.7-1.2.3-1.1.3-1.7c0-.5 0-.9-.1-1.3s-.2-.8-.4-1.1c-.2-.3-.4-.6-.7-.8-.3-.2-.6-.4-1-.6-.5-.3-.9-.4-1.4-.4zM121.2 57.7l-2.3-4.1H116.5v4.1h-1.2v-10h3.5c.5 0 .9.1 1.3.2s.7.3 1 .6.5.6.7.9c.2.4.2.8.2 1.3 0 .7-.2 1.3-.5 1.8s-.8.8-1.3 1l2.4 4.3-1.4-.1zm-4.7-5.2h2.2c.4 0 .7-.1 1.1-.2.3-.1.6-.4.8-.7.2-.3.3-.6.3-1 0-.6-.2-1.1-.6-1.4-.4-.3-.9-.5-1.5-.5h-2.2v3.8h-.1zM131.9 48.8h-3.7v8.9H127v-8.9h-3.7v-1.1h8.7v1.1h-.1zM136.5 47.7h3.4c.7 0 1.4.1 2 .3s1.1.5 1.6.9c.4.4.8.9 1 1.6.2.6.4 1.4.4 2.2s-.1 1.6-.4 2.2c-.2.6-.6 1.2-1 1.6-.4.4-1 .7-1.6.9s-1.3.3-2 .3h-3.4v-10zm1.2 1.1v7.8h2.1c.5 0 1-.1 1.5-.2.5-.2.8-.4 1.2-.7.3-.3.6-.7.8-1.2s.3-1.1.3-1.7c0-.5-.1-.9-.2-1.4-.1-.4-.3-.8-.4-1.1-.2-.3-.4-.6-.7-.8s-.6-.4-1-.5-.9-.2-1.4-.2h-2.2zM153 48.8h-5V52h4.5v1.1H148v3.5h5.1v1.1h-6.3v-10h6.3v1.1h-.1zM159.1 57.7h-1.2l-4-10h1.3l3.3 8.3 3.3-8.3h1.3l-4 10zM170.9 48.8h-5.1V52h4.5v1.1h-4.5v3.5h5.1v1.1h-6.3v-10h6.3v1.1zM173.9 56.6h5v1.1h-6.3v-10h1.2v8.9h.1zM184.4 47.5c.7 0 1.3.1 1.9.4s1.1.6 1.5 1 .8 1 1 1.6.3 1.3.3 2.1-.1 1.5-.3 2.1-.6 1.2-1 1.6c-.4.5-.9.8-1.5 1s-1.2.4-1.9.4-1.3-.1-1.9-.4c-.6-.2-1.1-.6-1.5-1s-.8-1-1-1.6-.3-1.4-.3-2.1c0-.8.1-1.5.3-2.1s.6-1.2 1-1.6c.4-.4.9-.8 1.5-1 .6-.3 1.2-.4 1.9-.4zm0 1.1c-.5 0-1 .1-1.4.3s-.8.5-1.1.8-.6.8-.7 1.3c-.2.5-.3 1.1-.3 1.7 0 .6.1 1.2.3 1.7s.4.9.7 1.3c.3.3.7.6 1.1.8.4.2.9.3 1.4.3.2 0 .5 0 .8-.1l.9-.3c.3-.2.6-.4.9-.7.3-.3.5-.7.7-1.2s.3-1.1.3-1.7c0-.5 0-.9-.1-1.3s-.2-.8-.4-1.1-.4-.6-.7-.8-.6-.4-1-.6c-.4-.3-.9-.4-1.4-.4zM191.1 47.7h3.7c.6 0 1.1.1 1.5.3s.8.4 1 .7c.3.3.4.6.5 1s.2.7.2 1.1c0 .6-.1 1.1-.4 1.6-.2.4-.6.8-1.1 1-.5.3-1.1.4-1.8.4h-2.4v4h-1.2V47.7zm1.2 1.1v3.8h2.4c.6 0 1.1-.2 1.5-.5s.6-.8.6-1.4c0-.6-.2-1.1-.6-1.4-.4-.3-.9-.5-1.5-.5h-2.4zM210.7 57.7h-1.2v-7.4l-3.8 7.4h-.9l-3.8-7.4v7.4h-1.2v-10h1.2l4.2 8.2 4.2-8.2h1.2v10h.1zM219.4 48.8h-5.1V52h4.5v1.1h-4.5v3.5h5.1v1.1h-6.3v-10h6.3v1.1zM228.7 57.7h-1.2l-5.2-7.7v7.7h-1.2v-10h1.2l5.2 7.7v-7.7h1.2v10zM238.8 48.8h-3.7v8.9h-1.2v-8.9h-3.7v-1.1h8.7v1.1h-.1zM243.4 47.7h3.5c.5 0 .9.1 1.3.2s.7.3 1 .5.5.5.6.8.2.7.2 1.2-.1 1-.4 1.4c-.2.4-.6.6-1 .8.6.1 1 .4 1.3.8.3.4.5.9.5 1.6 0 .9-.3 1.6-.9 2.1s-1.4.7-2.5.7h-3.7l.1-10.1zm1.2 1.1V52h2.2c1.3 0 1.9-.5 1.9-1.6 0-.5-.2-1-.5-1.2-.4-.3-.9-.4-1.5-.4h-2.1zm0 4.3v3.5h2.3c.7 0 1.3-.1 1.7-.4.4-.3.6-.7.6-1.3s-.2-1-.6-1.3c-.4-.3-.9-.4-1.7-.4l-2.3-.1zM256.8 47.5c.7 0 1.3.1 1.9.4s1.1.6 1.5 1 .8 1 1 1.6.3 1.3.3 2.1-.1 1.5-.3 2.1c-.2.6-.6 1.2-1 1.6-.4.5-.9.8-1.5 1s-1.2.4-1.9.4-1.3-.1-1.9-.4c-.6-.2-1.1-.6-1.5-1s-.8-1-1-1.6-.3-1.4-.3-2.1c0-.8.1-1.5.3-2.1s.6-1.2 1-1.6c.4-.4.9-.8 1.5-1 .5-.3 1.2-.4 1.9-.4zm0 1.1c-.5 0-1 .1-1.4.3s-.8.5-1.1.8-.6.8-.7 1.3c-.2.5-.3 1.1-.3 1.7 0 .6.1 1.2.3 1.7s.4.9.7 1.3c.3.3.7.6 1.1.8.4.2.9.3 1.4.3.2 0 .5 0 .8-.1l.9-.3c.3-.2.6-.4.9-.7s.5-.7.7-1.2.3-1.1.3-1.7c0-.5 0-.9-.1-1.3s-.2-.8-.4-1.1c-.2-.3-.4-.6-.7-.8-.3-.2-.6-.4-1-.6-.5-.3-.9-.4-1.4-.4zM271.7 57.7h-1.3l-1.1-2.8h-4.5l-1.2 2.8h-1.3l4.1-10h1.3l4 10zm-6.5-3.9h3.6l-1.8-4.5-1.8 4.5zM279.2 57.7l-2.3-4.1H274.5v4.1h-1.2v-10h3.5c.5 0 .9.1 1.3.2s.7.3 1 .6.5.6.7.9c.2.4.2.8.2 1.3 0 .7-.2 1.3-.5 1.8s-.8.8-1.3 1l2.4 4.3-1.4-.1zm-4.8-5.2h2.2c.4 0 .7-.1 1.1-.2.3-.1.6-.4.8-.7.2-.3.3-.6.3-1 0-.6-.2-1.1-.6-1.4-.4-.3-.9-.5-1.5-.5h-2.2l-.1 3.8zM282.3 47.7h3.4c.7 0 1.4.1 2 .3s1.1.5 1.6.9c.4.4.8.9 1 1.6.2.6.4 1.4.4 2.2s-.1 1.6-.4 2.2c-.2.6-.6 1.2-1 1.6-.4.4-1 .7-1.6.9s-1.3.3-2 .3h-3.4v-10zm1.2 1.1v7.8h2.1c.5 0 1-.1 1.5-.2.5-.2.8-.4 1.2-.7.3-.3.6-.7.8-1.2.2-.5.3-1.1.3-1.7 0-.5-.1-.9-.2-1.4-.1-.4-.3-.8-.4-1.1-.2-.3-.4-.6-.7-.8-.3-.2-.6-.4-1-.5s-.9-.2-1.4-.2h-2.2z"/>
    </g>
  </g>
</svg>